<?xml version="1.0" encoding="UTF-8"?>
<!-- Generator: Adobe Illustrator 26.0.3, SVG Export Plug-In . SVG Version: 6.00 Build 0)  -->
<svg xmlns="http://www.w3.org/2000/svg" xmlns:xlink="http://www.w3.org/1999/xlink" version="1.1" id="Laag_1" x="0px" y="0px" viewBox="0 0 500 500" style="enable-background:new 0 0 500 500;" xml:space="preserve">
<style type="text/css">
	.st0{fill:#3C3C3B;}
</style>
<g>
	<path d="M108.4,214.6L108.4,214.6L108.4,214.6l0.3-0.3l-2.6,0.6l-6.2,1.5c0,0-0.6,0.1-1.6,0.3c-1.9,0.4-5.3,1.1-9.9,1.8   c-8.8-9.5-21.1-14.9-34.1-14.9c-13,0-25.3,5.4-34.1,14.9c-4.6-0.7-8.1-1.4-9.9-1.8c-1-0.2-1.5-0.3-1.6-0.3l-7.7-1.8L0,214.3   l0.1,0.1l0.2,0.2l0,0l0,0l-0.1-0.1l-0.1,0l10.2,21.2C8.8,240.3,8,245.1,8,250c0,16.8,9,31.5,22.3,39.6c7,4.3,15.2,6.7,24,6.7   c25.6,0,46.3-20.8,46.3-46.3c0-3.2-0.3-6.4-1-9.6c-0.3-1.6-0.8-3.2-1.3-4.8l10.2-21.2L108.4,214.6z M54.4,207.8   c10.8,0,21.2,4.2,29.1,11.6c-0.8,0.1-1.6,0.2-2.4,0.3c-7.4-6.5-16.8-10-26.6-10c-9.9,0-19.3,3.6-26.6,10c-0.8-0.1-1.6-0.2-2.4-0.3   C33.1,211.9,43.5,207.8,54.4,207.8z M77.8,220.1c-6.8,0.8-14.8,1.4-23.3,1.6h-0.1c-8.6-0.1-16.5-0.8-23.3-1.6   c6.7-5.2,14.8-8,23.4-8C62.9,212,71.1,214.9,77.8,220.1z M54.2,226.1h0.3c16.4-0.3,30.6-2.3,38.9-3.8c-3.2,3.3-7.6,7.9-12.4,13.9   c-8.1,9.9-18.8,25-26.6,43.4c-7.8-18.4-18.6-33.5-26.6-43.4c-4.8-5.9-9.2-10.6-12.4-13.9C23.6,223.8,37.9,225.8,54.2,226.1z    M80.9,243.4c0.5-0.7,1.1-1.4,1.6-2.1c1.7,2.1,2.6,4.8,2.6,7.5c0,2-0.5,4-1.4,5.6c0.3-1,0.4-2,0.4-3   C84.1,248.5,83,245.6,80.9,243.4z M81.7,251.5c0,5.2-4.2,9.5-9.5,9.5c-1,0-2.1-0.2-3.1-0.5c3.4-5.5,6.9-10.6,10.2-15.1   C80.9,247.1,81.7,249.2,81.7,251.5z M60.4,277c0.7-1.5,1.4-3.1,2.2-4.5c1,0.4,2,0.8,3.1,1.1C64,274.5,62.2,275.7,60.4,277z    M74.1,274.7c4.2-0.2,8.1-1.3,11.6-3.3c-6.7,9.8-17.7,16-29.8,16.5C61.4,280.2,71.7,275.7,74.1,274.7z M52.8,287.9   c-7.3-0.3-14.2-2.6-20.2-6.7c-3.8-2.7-7.1-6-9.7-9.8c3.5,1.9,7.4,3.1,11.6,3.3C37.1,275.7,47.3,280.2,52.8,287.9z M43.1,273.6   c1.1-0.3,2.1-0.7,3.1-1.1c0.7,1.5,1.5,3,2.2,4.5C46.6,275.7,44.8,274.5,43.1,273.6z M26.3,256.5c-1.7-2.1-2.7-4.8-2.7-7.7   c0-2.8,0.9-5.4,2.6-7.5c0.6,0.8,1.3,1.6,1.9,2.4c-1.8,2.1-2.9,4.9-2.9,7.7C25.2,253.3,25.6,255,26.3,256.5z M29.6,245.7   c3.3,4.5,6.7,9.4,10,14.8c-0.5,0.1-0.9,0.3-1.4,0.4c-0.4,0-0.8,0.1-1.1,0.1c-5.2,0-9.5-4.2-9.5-9.5   C27.6,249.4,28.3,247.4,29.6,245.7z M8.7,222c1.8,1.7,4.8,4.6,8.4,8.6c-1,1-1.9,2.1-2.7,3.3L8.7,222z M20,233.9   c1.1,1.2,2.2,2.5,3.3,3.9c-2.7,3-4.2,6.9-4.2,11.1c0,9.2,7.5,16.7,16.7,16.7c2.1,0,4.1-0.4,6-1.1c0.8,1.3,1.5,2.7,2.2,4   c-2.7,1.1-5.6,1.7-8.5,1.7c0,0-0.1,0-0.1,0c-0.1,0-0.2-0.1-0.2-0.1l0,0.1c-11.7-0.2-21.1-9.8-21.1-21.5   C14.1,243.2,16.2,237.9,20,233.9z M54.4,292.2c-18.5,0-34.3-12-40-28.6c1.1,1.6,2.4,3,3.8,4.3c3,6.1,7.5,11.3,13.1,15.2   c6.8,4.7,14.8,7.2,23.1,7.2c15.3,0,29.3-8.7,36.1-22.4c1.4-1.3,2.7-2.8,3.9-4.4C88.7,280.2,72.9,292.2,54.4,292.2z M73.5,270.2   L73.5,270.2c0-0.1-0.1,0-0.2,0c0,0-0.1,0-0.1,0c-2.9,0-5.8-0.6-8.5-1.7c0.7-1.4,1.5-2.7,2.2-4c1.9,0.7,3.9,1.1,6,1.1   c9.2,0,16.7-7.5,16.7-16.7c0-4.1-1.5-8-4.2-11.1c1.1-1.4,2.2-2.7,3.3-3.9c3.8,4,5.9,9.2,5.9,14.8C94.6,260.5,85.2,270,73.5,270.2z    M94.4,233.9c-0.8-1.1-1.7-2.2-2.7-3.3c3.6-4,6.6-6.9,8.4-8.6L94.4,233.9z"></path>
	<path class="st0" d="M489.4,239.5c0.3-0.7,0.7-1.2,1.2-1.7c0.5-0.5,1.1-0.8,1.8-1.1c0.7-0.3,1.4-0.4,2.1-0.4s1.4,0.1,2.1,0.4   c0.7,0.3,1.3,0.6,1.8,1.1c0.5,0.5,0.9,1,1.2,1.7c0.3,0.7,0.5,1.4,0.5,2.2c0,0.8-0.2,1.6-0.5,2.2c-0.3,0.7-0.7,1.2-1.2,1.7   c-0.5,0.5-1.1,0.8-1.8,1.1s-1.4,0.4-2.1,0.4s-1.4-0.1-2.1-0.4s-1.3-0.6-1.8-1.1c-0.5-0.5-0.9-1-1.2-1.7c-0.3-0.7-0.5-1.4-0.5-2.2   C488.9,241,489.1,240.2,489.4,239.5 M490.7,243.5c0.2,0.5,0.5,1,0.9,1.3c0.4,0.4,0.8,0.7,1.3,0.9c0.5,0.2,1,0.3,1.6,0.3   c0.6,0,1.1-0.1,1.6-0.3c0.5-0.2,0.9-0.5,1.3-0.9c0.4-0.4,0.7-0.8,0.9-1.3s0.3-1.1,0.3-1.7s-0.1-1.2-0.3-1.7s-0.5-1-0.9-1.3   c-0.4-0.4-0.8-0.7-1.3-0.9c-0.5-0.2-1-0.3-1.6-0.3c-0.6,0-1.1,0.1-1.6,0.3c-0.5,0.2-0.9,0.5-1.3,0.9c-0.4,0.4-0.7,0.8-0.9,1.3   c-0.2,0.5-0.3,1.1-0.3,1.7S490.5,243,490.7,243.5 M497,243.6c-0.2,0.3-0.4,0.5-0.6,0.7c-0.2,0.2-0.5,0.3-0.8,0.4   c-0.3,0.1-0.6,0.2-0.9,0.2c-0.5,0-0.9-0.1-1.3-0.2c-0.4-0.2-0.7-0.4-1-0.7c-0.3-0.3-0.5-0.6-0.6-1c-0.1-0.4-0.2-0.8-0.2-1.3   c0-0.5,0.1-0.9,0.2-1.3c0.1-0.4,0.3-0.7,0.6-1c0.3-0.3,0.6-0.5,1-0.7c0.4-0.2,0.8-0.2,1.3-0.2c0.3,0,0.7,0,0.9,0.1   c0.3,0.1,0.6,0.2,0.8,0.4s0.4,0.4,0.6,0.7s0.3,0.6,0.3,1h-1.1c-0.1-0.3-0.3-0.6-0.5-0.8c-0.3-0.2-0.6-0.3-1-0.3   c-0.5,0-1,0.2-1.3,0.6c-0.3,0.4-0.4,0.9-0.4,1.5c0,0.3,0,0.5,0.1,0.8c0.1,0.3,0.2,0.5,0.3,0.7c0.1,0.2,0.3,0.3,0.5,0.4   c0.2,0.1,0.4,0.2,0.7,0.2c0.4,0,0.7-0.1,1-0.3c0.3-0.2,0.4-0.5,0.5-0.8h1.2C497.2,243,497.1,243.4,497,243.6"></path>
	<path d="M473.3,235.9c-4.4,0-9.2,2.4-11.3,5.9h-0.1v-4.9h-11.4v35.8h11.7v-19.3c0-4.6,2.2-7.9,6.4-7.9c3.9,0,5.9,2,5.9,6v21.2h11.7   v-23.3C486.1,240.5,481.9,235.9,473.3,235.9 M421.2,254.9c0-6.2,2.8-10,7-10c4.8,0,7.3,4.3,7.3,10c0,5.7-2.4,9.9-7.2,9.9   C423.7,264.8,421.2,261,421.2,254.9 M428.3,235.9c-11.5,0-18.8,8.6-18.8,19c0,10.9,7.8,18.9,18.8,18.9c11.6,0,18.9-8.6,18.9-18.9   C447.2,244,439.2,235.9,428.3,235.9 M390.6,235.9c-7.7,0-16.4,2.8-16.4,11c0,5.4,2.6,8.7,10.8,10.4c2.8,0.6,5.5,1.2,7.9,1.9   c2.6,0.7,3.7,1.7,3.7,3.2c0,2.3-2.5,3.8-5.5,3.8c-3.9,0-6.3-2-6.3-5.2h-11.2c0.3,8.5,6.8,12.8,17.5,12.8c8.4,0,17.2-3.3,17.2-12.7   c0-4.6-3.5-8.8-9.7-9.9c-5.2-0.9-8.6-1.7-10.2-2.3c-1.6-0.8-2.4-1.7-2.4-2.7c0-1.7,1.5-2.7,5-2.7c3.4,0,5.2,1.3,5.2,4h10.8   C406.8,239.8,401,235.9,390.6,235.9 M347.4,262.5c0-2.4,1.6-3.9,4.8-4.6l4.1-0.9c1.7-0.3,2.8-0.8,3.2-1v1.4c0,6.5-2,9.2-7.1,9.2   C349.3,266.6,347.4,265.2,347.4,262.5 M354.1,235.9c-10.4,0-16.6,4-17,12.1h11c0.6-3,2.6-4.5,5.9-4.5c3,0,5.7,1.4,5.7,3.7   c0,2.6-1.7,3.2-5,3.7c-2.7,0.3-5.2,0.8-8.3,1.3c-6,1-10.6,4-10.6,10.8c0,6.7,4.5,10.8,12.2,10.8c5.1,0,9.1-1.6,11.8-4.4   c0.3,2.1,0.4,3,0.7,3.4h11.8c-1-2-1.4-4.9-1.4-7.4v-17.7C370.8,240.2,366.2,235.9,354.1,235.9 M308.4,251.2   c0.8-4.6,3.6-7.3,7.5-7.3c4,0,6.8,3.2,7,7.3H308.4z M315.9,235.9c-10.1,0-19.3,7.5-19.3,18.8c0,11.9,7.9,19.1,19.6,19.1   c8.7,0,15.7-4.1,17.8-11.9h-11c-1,2.4-3.6,3.9-6.7,3.9c-4.7,0-7.7-2.9-8-8.1h26.3v-1.5C334.7,244.1,327.7,235.9,315.9,235.9    M294.4,236.2c-5.2,0-9.2,2.6-10.8,7h-0.1v-6.3h-11.4v35.8h11.7v-18c0-4.4,3.3-8.3,8.8-8.3c1.7,0,2.7,0.2,4.5,0.7v-10.7   C296.3,236.3,295.4,236.2,294.4,236.2 M242.4,251.2c0.8-4.6,3.6-7.3,7.5-7.3c4,0,6.8,3.2,7,7.3H242.4z M250,235.9   c-10.1,0-19.3,7.5-19.3,18.8c0,11.9,7.9,19.1,19.6,19.1c8.7,0,15.7-4.1,17.8-11.9h-11c-1,2.4-3.6,3.9-6.7,3.9c-4.7,0-7.7-2.9-8-8.1   h26.3v-1.5C268.7,244.1,261.7,235.9,250,235.9 M203.1,254.5c0-6.5,3.2-9.6,7.2-9.6c4.6,0,7,4,7,9.6c0,6-2.6,10.4-7,10.4   C205.3,264.8,203.1,261.4,203.1,254.5 M191.8,223.5v49.3H203v-4.1h0.1c2.3,3.5,5.7,5.2,9.9,5.2c11.4,0,16-9.8,16-19.7   c0-9.7-5.2-18.2-15.1-18.2c-4.4,0-7.8,1.7-10.2,5h-0.1v-17.4H191.8z M151.8,236.9l9.3,25.1c1.9,5.2,2.9,7.8,2.9,9.2   c0,2.4-1.9,4-5,4h-3.8v9.5h6.8c7.7,0,11.2-1.7,13.9-9.2l14-38.7h-12l-6.8,23.3H171l-6.8-23.3H151.8z M135.3,235.9   c-11,0-18.8,7.7-18.8,19.5c0,11.3,8.4,18.4,18.8,18.4c9.6,0,16.9-5.5,18-15.1h-11.4c-0.6,4.1-2.8,6.1-6.6,6.1c-4.6,0-7-3.9-7-9.5   c0-7.3,2.6-10.5,7.6-10.5c3,0,5.7,2.1,5.7,5.2h11.4C152.1,241.1,144.7,235.9,135.3,235.9"></path>
</g>
</svg>
