<?xml version="1.0" encoding="UTF-8"?>
<!-- Generator: Adobe Illustrator 25.0.1, SVG Export Plug-In . SVG Version: 6.00 Build 0)  -->
<svg xmlns="http://www.w3.org/2000/svg" xmlns:xlink="http://www.w3.org/1999/xlink" version="1.1" id="Laag_1" x="0px" y="0px" viewBox="0 0 500 500" style="enable-background:new 0 0 500 500;" xml:space="preserve">
<g transform="matrix(1.25,0,0,-1.25,0,72.625)">
	<g>
		<path d="M45.2-175.4c-4,0.3-5.9,6.8-5.8,15c0.3,8.2,1.9,15.9,5.9,16.6l1.6,0.2c0.9-9.6,4-16.6,9.2-17.1l20.9,0.2    c-1-9.1-4.4-14.3-8-14.7L45.2-175.4"></path>
		<path d="M20.2-146.6c-2.6,0.2-3.8,4.4-3.7,9.6c0.2,5.4,1.2,10.3,3.8,10.6l16.4,2.4c0.2,0,0.3,0.2,0.7,0.2c2.3,0,3.8-4.9,3.7-11.3    c-0.3-7-2.8-11-5.2-11.3l-15.5-0.2"></path>
		<path d="M2.6-124.3c-1.7,0.2-2.6,3.1-2.6,6.8c0.2,3.7,0.9,7.2,2.6,7.5l11.5,1.6c0.2,0,0.3,0,0.3,0c1.6,0,2.8-3.3,2.4-7.9    c-0.2-4.9-1.9-7.7-3.7-7.9H2.4"></path>
		<path d="M57.4-156.4c-4.4,0.3-6.6,7.7-6.3,16.6c0.3,9.1,2.1,17.6,6.6,18.3l28.3,4c0.3,0.2,0.7,0.2,1,0.2c4,0,6.6-8.4,6.1-19.5    c-0.5-12-4.7-19-9.1-19.4l-26.5-0.2"></path>
		<path d="M163.9-142.6l-8.4-15.4h-9.8l11.3,19.7l-10.3,18.2h10.3l6.8-14l6.8,14H181l-10.3-18.2L182-158h-9.8L163.9-142.6"></path>
		<path d="M199.1-145.9c0-0.7,0-1.4,0-2.1c0-0.7,0.2-1.2,0.5-1.7c0.3-0.5,0.9-0.9,1.6-1c0.7-0.3,1.7-0.3,3-0.3h5.4l0.7-0.7v-1.9    c0-1.6-0.3-2.6-1.4-3.1c-0.9-0.7-2.4-0.9-4.7-0.9h-2.3c-2.3,0-4.2,0.2-5.8,0.7c-1.6,0.5-2.8,1-3.7,1.9c-1,0.9-1.6,1.9-2.1,3.1    c-0.3,1.2-0.7,2.6-0.7,4v21.3h-5.2v6.1l5.2,0.3L192-110h6.8v-9.8h10.6v-6.8h-10.6v-19"></path>
		<path d="M235.1-126.5H226V-158h-9.1v37.5c3,0.2,5.4,0.3,7.2,0.5c1.7,0.2,3.3,0.2,4.4,0.2c1.2,0,2.3,0,3.1,0c1,0,2.1,0,3.5,0    L235.1-126.5"></path>
		<path d="M263-151.7v9.8h-10.5c-1,0-1.9-0.2-2.4-0.3c-0.7-0.2-1-0.5-1.4-0.9c-0.3-0.3-0.5-0.9-0.7-1.2c0-0.5-0.2-1-0.2-1.6v-1.7    c0-0.5,0-1,0.2-1.6c0-0.5,0.3-0.9,0.7-1.4c0.3-0.3,0.9-0.7,1.4-0.9c0.7-0.2,1.4-0.3,2.4-0.3H263V-151.7z M242.6-127.1l-0.7,0.7    v1.9c0,1.6,0.3,2.6,1.4,3.1c0.9,0.7,2.4,0.9,4.7,0.9h11.3c2.3,0,4.2-0.3,5.8-0.9c1.6-0.5,3-1.2,4-2.3c1-0.9,1.9-2.1,2.3-3.3    c0.5-1.2,0.7-2.6,0.7-4.2v-27.1c-3-0.2-5.6-0.3-7.7-0.5s-3.8-0.2-5.6-0.2c-1.6,0-3,0-4.2,0s-2.4,0-3.8,0c-2.3,0-4.2,0.2-5.8,0.7    c-1.6,0.5-2.8,1-3.7,1.9c-1,0.9-1.6,1.9-2.1,3.1c-0.3,1.2-0.7,2.6-0.7,4v4.9c0,1.4,0.2,2.8,0.7,4c0.3,1.2,1,2.3,2.1,3.1    c1,0.9,2.3,1.4,3.7,1.9c1.6,0.5,3.5,0.7,5.8,0.7c1.2,0,2.1,0,2.6,0c0.7,0,1.4,0,2.1,0s1.6-0.2,2.6-0.2c1-0.2,2.6-0.3,4.7-0.5v1.6    c0,0.9,0,1.7-0.2,2.4c-0.2,0.9-0.3,1.4-0.9,2.1c-0.5,0.5-1,1-1.9,1.4c-0.9,0.3-1.9,0.5-3.5,0.5h-14"></path>
		<path d="M307.7-158.1v20.6h-18.2v-20.6h-9.4v46.9h9.4v-19h18.2v19h9.4v-46.9H307.7"></path>
		<path d="M343.5-151.3c2.3,0,3.8,0.3,4.7,1s1.2,1.9,1.2,3.5v15.2c0,1.6-0.3,2.8-1.2,3.5c-0.9,0.7-2.4,1-4.7,1h-3.1    c-2.3,0-3.8-0.3-4.7-1c-0.9-0.7-1.2-1.9-1.2-3.5v-15.2c0-1.6,0.3-2.8,1.2-3.5c0.9-0.7,2.4-1,4.7-1H343.5z M337.3-158.1    c-2.3,0-4.2,0.2-5.8,0.7c-1.6,0.5-2.8,1-3.7,1.9c-1,0.9-1.6,1.9-2.1,3.1c-0.3,1.2-0.7,2.6-0.7,4v18.5c0,1.4,0.2,2.8,0.7,4    c0.3,1.2,1,2.3,2.1,3.1c1,0.9,2.3,1.4,3.7,1.9c1.6,0.5,3.5,0.7,5.8,0.7h9.1c2.3,0,4.2-0.2,5.8-0.7c1.6-0.5,2.8-1,3.7-1.9    c1-0.9,1.6-1.9,2.1-3.1c0.3-1.2,0.7-2.6,0.7-4v-18.5c0-1.4-0.2-2.8-0.7-4c-0.3-1.2-1-2.3-2.1-3.1c-1-0.9-2.3-1.6-3.7-1.9    c-1.6-0.5-3.5-0.7-5.8-0.7H337.3"></path>
		<path d="M390.8-146.4v14.8c0,0.7,0,1.4,0,1.9c0,0.7-0.2,1-0.5,1.6c-0.3,0.3-0.7,0.7-1.4,1c-0.7,0.2-1.6,0.3-2.8,0.3h-10.5v-25h9.9    c1.4,0,2.3,0.2,3,0.3c0.7,0.2,1.2,0.7,1.6,1c0.3,0.5,0.5,1,0.5,1.7C390.6-147.8,390.8-147.1,390.8-146.4z M387.8-158.5    c-0.5,0-1.2,0-1.9,0c-0.7,0-1.6,0-2.4,0c-0.9,0-2.1,0.2-3.3,0.2c-1.2,0.2-2.8,0.3-4.5,0.5v-15.5h-9.1v52.7c3,0.2,5.6,0.3,7.7,0.5    s3.8,0.2,5.6,0.2c1.6,0,3,0,4.2,0c1.2,0,2.6,0,3.8,0c2.3,0,4.2-0.2,5.8-0.7c1.6-0.5,2.8-1,3.7-1.9c1-0.9,1.6-1.9,2.1-3.1    c0.3-1.2,0.7-2.6,0.7-4v-19.2c0-1.4-0.2-2.8-0.7-4c-0.3-1.2-1-2.3-2.1-3.1c-1-0.9-2.3-1.4-3.7-1.9c-1.6-0.5-3.5-0.7-5.8-0.7"></path>
		<path d="M119-119.7c0.9,1,2.8,1.4,5.4,1.4h19.4l0.7,0.7v2.3c0,1.6-0.3,2.6-1.4,3.1c-0.9,0.7-2.4,0.9-4.7,1h-18.2    c-2.3,0-4.2-0.2-5.8-0.7c-1.6-0.5-2.8-1-3.7-1.9c-1-0.9-1.6-1.9-2.1-3.1c-0.3-1.2-0.7-2.6-0.7-4v-5.9c0-0.2,0-0.5,0-0.7v-12.9    c0-0.3,0-0.5,0-0.9v-7.2c0-1.4,0.2-2.8,0.7-4c0.3-1.2,1-2.3,2.1-3.1c1-0.9,2.3-1.6,3.7-1.9c1.6-0.5,3.5-0.7,5.8-0.7h18.2    c2.3,0,3.8,0.3,4.7,0.9c0.9,0.7,1.4,1.7,1.4,3.3v2.3l-0.7,0.7h-19.4c-2.6,0-4.4,0.5-5.4,1.6c-0.9,1-1.4,2.3-1.4,3.8v3    c0,1.4,0.3,2.8,1.2,3.7c0.9,1,2.4,1.6,4.7,1.6h12.6v6.8h-12.6c-2.3,0-3.8,0.5-4.7,1.6c-0.9,1-1.2,2.3-1.2,3.7v1.7    c0,1.6,0.5,2.8,1.4,3.8"></path>
	</g>
</g>
</svg>
