<?xml version="1.0" encoding="UTF-8"?>
<svg xmlns="http://www.w3.org/2000/svg" id="Laag_1" data-name="Laag 1" viewBox="0 0 500 500">
  <defs>
    <style>.cls-1{fill:#54bfd2;}</style>
  </defs>
  <title>Tekengebied 1</title>
  <polygon points="146.53 205.47 188.9 205.47 188.9 216.6 158.77 216.6 158.77 228.44 183.22 228.44 183.22 239.57 158.77 239.57 158.77 261.12 146.53 261.12 146.53 205.47"></polygon>
  <rect x="196.49" y="205.47" width="12.08" height="55.65"></rect>
  <path d="M250.39,240.05v-.16c0-6.28-4.53-11.76-11.2-11.76-6.92,0-11.05,5.32-11.05,11.6v.16c0,6.28,4.53,11.77,11.21,11.77,6.91,0,11-5.33,11-11.61m-34.18,0v-.16c0-12.24,9.86-22.18,23.14-22.18s23,9.78,23,22v.16c0,12.24-9.85,22.18-23.12,22.18s-23-9.78-23-22"></path>
  <polygon points="265.69 218.5 277.93 218.5 284.77 244.34 292.8 218.35 303.21 218.35 311.32 244.42 318.31 218.5 330.32 218.5 317.04 261.43 306.15 261.43 297.96 235.28 289.62 261.43 278.8 261.43 265.69 218.5"></polygon>
  <path d="M441.89,240.05v-.16c0-6.28-4.53-11.76-11.2-11.76-6.92,0-11.06,5.32-11.06,11.6v.16c0,6.28,4.54,11.77,11.21,11.77,6.92,0,11.05-5.33,11.05-11.61m-34.18,0v-.16c0-12.24,9.86-22.18,23.13-22.18s23,9.78,23,22v.16c0,12.24-9.86,22.18-23.13,22.18s-23-9.78-23-22"></path>
  <path d="M461,218.51h12.08v6c2.78-3.58,6.36-6.84,12.48-6.84,9.14,0,14.47,6,14.47,15.82v27.59H487.92V237.35c0-5.73-2.71-8.67-7.32-8.67s-7.55,2.94-7.55,8.67v23.77H461Z"></path>
  <path d="M337.83,218.51h12.09v6c2.78-3.58,6.35-6.84,12.48-6.84,9.14,0,14.46,6,14.46,15.82v27.59H364.78V237.35c0-5.73-2.7-8.67-7.31-8.67s-7.55,2.94-7.55,8.67v23.77H337.83Z"></path>
  <path d="M387.12,217.71c-5.91,0-9.44,3-12.19,6.48v10.45c.82-3.92,3.46-6,7.26-6,4.61,0,7.32,2.94,7.32,8.67v23.77h12.08V233.53C401.59,223.75,396.26,217.71,387.12,217.71Z"></path>
  <polygon class="cls-1" points="101.03 224.74 12.58 224.74 15.98 205.47 104.42 205.47 101.03 224.74"></polygon>
  <polygon class="cls-1" points="94.9 259.49 6.46 259.49 9.85 240.22 98.29 240.22 94.9 259.49"></polygon>
  <polygon class="cls-1" points="19.27 294.24 0 294.24 3.4 274.98 22.66 274.98 19.27 294.24"></polygon>
  <polygon class="cls-1" points="54.18 294.24 34.91 294.24 38.31 274.98 57.58 274.98 54.18 294.24"></polygon>
  <path d="M146.53,277.62h1.76l10.48,13.32V277.62h1.82v16.63H159.1l-10.74-13.64v13.64h-1.83Z"></path>
  <path d="M172.89,292.94a5.09,5.09,0,0,0,3.87-1.73l1.14,1a6.36,6.36,0,0,1-5.06,2.3,6.11,6.11,0,0,1-6.13-6.41c0-3.57,2.5-6.42,5.89-6.42,3.64,0,5.73,2.9,5.73,6.51,0,.17,0,.36,0,.64h-9.75A4.31,4.31,0,0,0,172.89,292.94Zm3.58-5.56c-.21-2.23-1.49-4.13-3.92-4.13-2.11,0-3.72,1.75-4,4.13Z"></path>
  <path d="M184.23,291v-7.41h-1.71V282h1.71v-3.7h1.83V282H190v1.62h-3.9v7.17a1.82,1.82,0,0,0,2.07,2.05,3.85,3.85,0,0,0,1.78-.43v1.57a4.63,4.63,0,0,1-2.21.52A3.13,3.13,0,0,1,184.23,291Z"></path>
  <path d="M194.64,282h1.94l3.24,9.86,3.3-9.9h1.52l3.33,9.9L211.2,282h1.9l-4.33,12.38h-1.59l-3.3-9.69-3.33,9.69h-1.61Z"></path>
  <path d="M217.14,288.16v0a6.41,6.41,0,0,1,12.81-.05v.05a6.38,6.38,0,0,1-6.44,6.41A6.3,6.3,0,0,1,217.14,288.16Zm10.93,0v0a4.65,4.65,0,0,0-4.56-4.8,4.53,4.53,0,0,0-4.49,4.75v.05a4.6,4.6,0,0,0,4.54,4.77A4.53,4.53,0,0,0,228.07,288.16Z"></path>
  <path d="M235.56,282h1.83v3.21a5.27,5.27,0,0,1,5-3.42v2h-.14c-2.68,0-4.87,1.93-4.87,5.63v4.9h-1.83Z"></path>
  <path d="M247.38,276.9h1.83v12l6.63-6.92h2.28L253,287.24l5.32,7H256.1l-4.39-5.73-2.5,2.52v3.21h-1.83Z"></path>
  <path d="M261.67,292.68l.93-1.31a7.16,7.16,0,0,0,4.25,1.57c1.48,0,2.54-.76,2.54-1.95v-.05c0-1.23-1.44-1.71-3.06-2.16-1.92-.55-4.06-1.21-4.06-3.47v0c0-2.12,1.76-3.52,4.18-3.52a8.4,8.4,0,0,1,4.42,1.35l-.83,1.38a6.93,6.93,0,0,0-3.64-1.19c-1.45,0-2.37.76-2.37,1.78v.05c0,1.17,1.52,1.62,3.15,2.12,1.91.57,3.95,1.3,3.95,3.51v.05c0,2.33-1.93,3.68-4.37,3.68A8.44,8.44,0,0,1,261.67,292.68Z"></path>
</svg>
