<?xml version="1.0" encoding="UTF-8"?>
<!-- Generator: Adobe Illustrator 25.2.0, SVG Export Plug-In . SVG Version: 6.00 Build 0)  -->
<svg xmlns="http://www.w3.org/2000/svg" xmlns:xlink="http://www.w3.org/1999/xlink" version="1.1" id="Laag_1" x="0px" y="0px" viewBox="0 0 500 500" style="enable-background:new 0 0 500 500;" xml:space="preserve">
<style type="text/css">
	.st0{fill:#00AF9A;}
	.st1{fill:#1D252C;}
</style>
<g>
	<g>
		<path class="st0" d="M22.2,233.3h16.7V250H22.2V233.3z"></path>
		<g>
			<path class="st1" d="M50,202.8H0v30.5h15.5v-15.8H50V202.8z"></path>
			<path class="st1" d="M0,250h15.5v27.8H0V250z"></path>
		</g>
	</g>
	<g>
		<rect x="395.1" y="203.4" class="st1" width="14.4" height="13.3"></rect>
		<path class="st1" d="M123.5,227.5v-5.3h-13.6v55.5h14.4v-27.5c0-4.4,0.6-9.2,3.6-12.2c3.3-3.3,7.9-3.9,13.6-3.4v-13.9    C134.9,219.7,128,222,123.5,227.5z"></path>
		<path class="st1" d="M141.6,234.7h0.3C141.8,234.7,141.7,234.7,141.6,234.7L141.6,234.7z"></path>
		<path class="st1" d="M199.3,258.9c0,0.1-0.1,0.2-0.1,0.3h0.1V258.9z"></path>
		<path class="st1" d="M172.4,233.9c5.3,0,9.7,3.1,11.7,6.9h15.3c-3.3-12.8-13.6-20.3-26.9-20.3c-16.9,0-28.9,13.3-28.9,29.4    s11.9,29.2,28.9,29.2c13.5,0,23.4-7.4,26.8-20h-15.2c-1.7,3.9-6.4,7.2-11.7,7.2c-8.1,0-14.4-7.2-14.4-16.1    C158,241.4,164.4,233.9,172.4,233.9z"></path>
		<path class="st1" d="M232.9,220.6c-15.8,0-28.6,13.3-28.6,29.4s12.8,29.2,28.6,29.2c13.3,0,22.8-6.9,26.4-17.5h-15.8    c-2.5,3.3-6.7,5-10.8,5c-6.7,0-12.2-4.2-13.9-11.1H261C262.9,233.3,249.3,220.6,232.9,220.6z M219,243.6    c1.9-6.4,7.2-10.5,13.9-10.5c6.9,0,12.2,4.2,13.9,10.5H219z"></path>
		<rect x="395.1" y="222.2" class="st1" width="14.4" height="55.5"></rect>
		<path class="st1" d="M445.6,220.6c-6.1,0-10.8,2.8-14.4,6.9v-5.3h-13.6v55.5H432V245c0-6.4,4.4-11.1,10.8-11.1    c9.2,0,10.3,7.8,10.3,11.1v32.8h14.4v-32.5C467.5,230.6,458.6,220.6,445.6,220.6z"></path>
		<path class="st1" d="M500,234.7V222h-10.8v-13.6h-14.4v46.1c0,15.3,8.6,25,25,23.3h0.3v-13c-7.2,0.6-10.8-2.5-10.8-10.3v-19.7H500    z"></path>
		<path class="st1" d="M74.1,220.6c-16.1,0-29.2,13-29.2,29.2c0,16.1,13,29.2,29.2,29.2c16.1,0,29.2-13,29.2-29.2    C103.3,233.6,90.2,220.6,74.1,220.6z M74.1,265.8c-8.6,0-15.5-7.2-15.5-16.1c0-8.9,6.9-16.1,15.5-16.1c8.6,0,15.5,7.2,15.5,16.1    C89.7,258.6,82.7,265.8,74.1,265.8z"></path>
		<path class="st1" d="M359.8,220.6c-16.1,0-29.2,13-29.2,29.2c0,16.1,13,29.2,29.2,29.2c16.1,0,29.2-13,29.2-29.2    C389.2,233.6,376.2,220.6,359.8,220.6z M359.8,265.8c-8.6,0-15.5-7.2-15.5-16.1c0-8.9,6.9-16.1,15.5-16.1    c8.6,0,15.5,7.2,15.5,16.1C375.3,258.6,368.7,265.8,359.8,265.8z"></path>
		<path class="st1" d="M298.4,220.6c-6.7,0-12.5,2.8-16.9,7.2v-5.6h-13.9v75h14.4v-25c4.2,4.2,10,6.7,16.4,6.7    c14.7,0,26.7-12.5,26.7-29.2S313.2,220.6,298.4,220.6z M296.5,265.5c-8.1,0-14.4-6.9-14.4-15.8c0-8.9,6.4-15.8,14.4-15.8    c7.8,0,14.2,6.7,14.4,15.8C310.9,258.6,304.6,265.5,296.5,265.5z"></path>
	</g>
</g>
</svg>
