<?xml version="1.0" encoding="UTF-8"?>
<svg xmlns="http://www.w3.org/2000/svg" id="Laag_1" data-name="Laag 1" viewBox="0 0 500 500">
  <defs>
    <style>.cls-1{fill:#2ae;}</style>
  </defs>
  <title>Tekengebied 1</title>
  <path class="cls-1" d="M41.12,274.38,5.2,258.1a8.85,8.85,0,0,1,0-16.12L41.08,225.7l4.42,9.74L13.38,250l32.16,14.59Z"></path>
  <path d="M125.24,232.51H106.15c-2.23,0-3.8.43-4.66,1.29s-.94,2.31-.94,4.42V246h19.18l0,9.31H100.55v22.11H90v-43.2c0-4,.86-6.81,2.62-8.45s4.77-2.5,9-2.5h23.63Z"></path>
  <path d="M172.08,247.77v4.07q0,13.5-5.09,19.6t-16.32,6.11q-11.21,0-16.23-6.11t-5-19.8v-3.91c0-8.33,1.68-14.52,5.09-18.58s8.76-6.11,16.12-6.11,12.75,2.08,16.23,6.18S172.08,239.47,172.08,247.77Zm-9.94,3.83v-2.81c0-4.85-.59-8.69-1.8-11.58-1.41-3.33-4.42-5-9.08-5s-7.75,1.68-9.15,5c-1.18,2.73-1.73,6.57-1.73,11.58v2.81c0,6.5.9,10.92,2.74,13.19a8.33,8.33,0,0,0,3.13,2.46,11.54,11.54,0,0,0,5,1,11.3,11.3,0,0,0,5-1,8.7,8.7,0,0,0,3.17-2.42,10.47,10.47,0,0,0,1.72-3.8,36.92,36.92,0,0,0,1-9.47Z"></path>
  <path d="M222.39,277.39H210l-10.48-19.88H192v19.88H181.39V234.86c0-4.07.94-7,2.82-8.88s5-2.78,9.43-2.78h9c5.36,0,9.66,1.64,12.83,4.89a17.14,17.14,0,0,1,4.77,12.44,15.82,15.82,0,0,1-2.85,9.47,15,15,0,0,1-7,5.52Zm-15.06-31.46a8,8,0,0,0,2.15-5.75,7.63,7.63,0,0,0-2.07-5.56,7.43,7.43,0,0,0-5.56-2.11h-5.24c-3.13,0-4.7,1.6-4.7,4.77v11h9.9a7.37,7.37,0,0,0,5.52-2.31Z"></path>
  <path d="M264.38,277.39H245.32q-9.15,0-12.83-3.17c-2.47-2.11-3.68-5.83-3.68-11.15V231.85a8.65,8.65,0,0,1,8.65-8.65h27v9.31h-25v12.83h17.45l0,9.32H239.38v7.9c0,2.11.46,3.56,1.44,4.34s2.7,1.22,5.25,1.22h18.35v9.27Z"></path>
  <path d="M310.59,261.27a14.35,14.35,0,0,1-5.6,12q-5.58,4.35-14.28,4.34a26.1,26.1,0,0,1-13.3-3.75,14.87,14.87,0,0,1-5.21-5.56,16.54,16.54,0,0,1-2-8.18l9.51-.46a7.16,7.16,0,0,0,3.48,6.33,14.08,14.08,0,0,0,7.71,2.27c6.3,0,9.43-2.23,9.43-6.65,0-3.64-2.16-5.75-6.42-6.42l-8.77-.9a18.48,18.48,0,0,1-10.4-4.69c-2.59-2.47-3.84-6-3.84-10.64a14.22,14.22,0,0,1,5.52-11.47c3.68-3,8.33-4.54,13.93-4.54s10.13,1.41,13.54,4.27a13.57,13.57,0,0,1,5.12,11l-9.35.47q-1.29-6.57-8.84-6.57a11.84,11.84,0,0,0-7.2,2,5.74,5.74,0,0,0-2.62,4.65,5.16,5.16,0,0,0,1.87,4.23,9.41,9.41,0,0,0,4.7,1.92l8.61.9C305.77,247,310.59,252.19,310.59,261.27Z"></path>
  <path d="M346.74,256.26h9.82q0,10.1-5.17,15.49c-3.44,3.6-8.33,5.4-14.63,5.4q-20.77,0-20.77-23.79V248.9c0-12.48,3.56-20.34,10.64-23.47a24,24,0,0,1,10.13-1.92q8.69,0,14.13,4.62t5.43,13.38h-9.89a13,13,0,0,0-3-6.61q-2.11-2.24-6.69-2.23c-3.56,0-6.18,1.09-7.9,3.24-1.22,1.53-1.92,4.15-2.12,7.87-.11,1.17-.15,2.78-.15,4.81v4.62c0,5.67.82,9.55,2.42,11.62s4.27,3.13,7.79,3.13,5.95-.94,7.32-2.86S346.35,260.25,346.74,256.26Z"></path>
  <path d="M404.8,247.77v4.07q0,13.5-5.08,19.6t-16.32,6.11c-7.47,0-12.87-2-16.24-6.11s-5-10.68-5-19.8v-3.91q0-12.49,5.09-18.58c3.41-4.07,8.77-6.11,16.12-6.11s12.76,2.08,16.24,6.18S404.8,239.47,404.8,247.77Zm-10.25,3.83v-2.81c0-4.85-.59-8.69-1.8-11.58-1.41-3.33-4.42-5-9.08-5s-7.74,1.68-9.15,5c-1.18,2.73-1.72,6.57-1.72,11.58v2.81c0,6.5.9,10.92,2.74,13.19a8.18,8.18,0,0,0,3.13,2.46,12.81,12.81,0,0,0,9.93,0,8.62,8.62,0,0,0,3.17-2.42,10.31,10.31,0,0,0,1.72-3.8,35,35,0,0,0,1.06-9.47Z"></path>
  <path d="M453.87,223.24v35.33c0,5.83-2,10.45-5.91,13.81a23.62,23.62,0,0,1-29.19,0c-3.95-3.36-5.91-8-5.91-13.81V223.24h10.57v34.94c0,3.32.9,5.79,2.7,7.43a10.32,10.32,0,0,0,7.2,2.47,10.46,10.46,0,0,0,7.23-2.47c1.84-1.64,2.74-4.11,2.74-7.43V223.24Z"></path>
  <path d="M499.68,232.86H485.25v44.57H474.33V232.86H460.56v-9.62h39.12Z"></path>
  <path class="cls-1" d="M59,250a60.38,60.38,0,0,1-7.51,29.19l9.82,4.38A71.26,71.26,0,0,0,69.72,250a71.26,71.26,0,0,0-8.41-33.57l-9.82,4.38A60.38,60.38,0,0,1,59,250Z"></path>
  <path d="M498.75,276.25a4.29,4.29,0,0,1-7.28-3.09A4.13,4.13,0,0,1,492.8,270a4.27,4.27,0,0,1,7.2,3.13,4.15,4.15,0,0,1-1.25,3.09Zm-5.48-5.51a3.39,3.39,0,0,0-1,2.46,3.34,3.34,0,0,0,1.06,2.51,3.56,3.56,0,0,0,5,0l0,0a3.39,3.39,0,0,0,1-2.51,3.36,3.36,0,0,0-1-2.46,3.47,3.47,0,0,0-4.9-.12.65.65,0,0,0-.15.12Zm.62,4.85v-4.74h2.31a2,2,0,0,1,.94.24,1.16,1.16,0,0,1,.63,1.13,1,1,0,0,1-.32.86,1.45,1.45,0,0,1-.82.32,1.51,1.51,0,0,1,.67.27,1.26,1.26,0,0,1,.43,1.06v.58a.3.3,0,0,0,0,.16l0,.12h-1.18a3.83,3.83,0,0,1-.08-.67,2.87,2.87,0,0,0-.07-.58.64.64,0,0,0-.36-.36,1.68,1.68,0,0,0-.43-.07h-.54v1.68Zm2.27-3.84a1.53,1.53,0,0,0-.7-.07h-.31v1.37h.47a1.27,1.27,0,0,0,.66-.16.62.62,0,0,0,.24-.55.54.54,0,0,0-.36-.59Z"></path>
</svg>
