<?xml version="1.0" encoding="UTF-8"?>
<svg xmlns="http://www.w3.org/2000/svg" id="Laag_1" data-name="Laag 1" viewBox="0 0 500 500">
  <defs>
    <style>.cls-1,.cls-2{fill-rule:evenodd;}.cls-2{fill:#ed3026;}</style>
  </defs>
  <title>Tekengebied 1</title>
  <path class="cls-1" d="M-.5,220.52c.42,0,.84,0,1.26,0H61.52V233.1H13.33v9.5H54.81v12.11H13.31v22a6.54,6.54,0,0,1-.73.1H0a4.11,4.11,0,0,1-.47-.07Z"></path>
  <path class="cls-2" d="M119,219.94q0,7.17,0,14.33c0,.49-.21.72-.7.7h-.39c-6.68,0-13.37,0-20,0-.92,0-1.2-.26-1.2-1.2,0-4.62,0-9.24,0-13.85Z"></path>
  <path class="cls-2" d="M139.35,219.94a27.81,27.81,0,0,1,4.13,2.91,16.89,16.89,0,0,1,4.7,11.05c.06.78-.18,1.1-1,1.1q-10.42,0-20.83,0c-.81,0-1.11-.26-1.1-1.13.05-4.26,0-8.52,0-12.78,0-.38-.05-.77-.07-1.15Z"></path>
  <path class="cls-2" d="M90.47,219.94c0,4.59-.06,9.17,0,13.76,0,1-.23,1.29-1.23,1.29-6.88,0-13.76,0-20.65,0-.44,0-.89.08-.95-.63-.44-4.72,3.5-11.74,7.77-13.79l1.31-.61Z"></path>
  <path class="cls-1" d="M492.93,280.06a7.92,7.92,0,0,1-4.42-2.35,7,7,0,0,1-.9-7.78,6.84,6.84,0,0,1,12.71,1.93c0,.22.12.43.18.64v1.36c-.07.24-.14.49-.19.73a6.69,6.69,0,0,1-4,4.85,16.84,16.84,0,0,1-2.21.62Zm.75-12.83a5.92,5.92,0,0,0-6,5.78,6,6,0,0,0,6,6.19,6.11,6.11,0,0,0,6-6A6,6,0,0,0,493.68,267.23Z"></path>
  <path class="cls-1" d="M216.62,252.06a6.57,6.57,0,0,1,3.77,6.13c.14,6,.08,12.09.1,18.13a3.31,3.31,0,0,1-.06.45H207.16V258.26c0-2.29-.9-3.26-3.16-3.41-1-.07-2-.11-3-.11q-13.86,0-27.73,0H172v22H158.3v-56.2h1.14q21.28,0,42.56,0a33.21,33.21,0,0,1,8.92,1.07c5.47,1.55,9,5,9.7,10.7a70,70,0,0,1,.31,11.5,11.51,11.51,0,0,1-3.65,7.41l-.61.62S216.66,251.94,216.62,252.06Zm-44.56-9.47c.35,0,.64,0,.92,0q14.11,0,28.22,0a32,32,0,0,0,3.67-.19,2.73,2.73,0,0,0,2.47-2.67c0-1.26,0-2.52,0-3.78a2.7,2.7,0,0,0-2.25-2.66,11.75,11.75,0,0,0-2.22-.19H173.09c-.34,0-.68,0-1,0Z"></path>
  <path class="cls-1" d="M383.13,276.78V220.64h55.25v12.45H396.87v9.53h28.84v12.1H396.87v9.57h41.75v12.49Z"></path>
  <path class="cls-1" d="M324.38,233.12v43.66H310.64V220.57h1.06q21.68,0,43.34,0a21,21,0,0,1,9.55,2.2c4.76,2.42,7.2,6.55,8.23,11.58a34.67,34.67,0,0,1,.68,6.82c.07,11.54,0,23.08,0,34.62,0,.32,0,.63-.06,1H359.73v-1.47q0-17.94,0-35.88a15.64,15.64,0,0,0-.42-3.54c-.38-1.68-1.69-2.43-3.27-2.75a5.45,5.45,0,0,0-1.07-.06H325.37C325.09,233.08,324.8,233.1,324.38,233.12Z"></path>
  <path class="cls-1" d="M241.18,233.13H228.26V220.62H279.7v12.49H255v43.66H241.18Z"></path>
  <path class="cls-1" d="M445.23,233.15V220.64h51.52V233.1H472v43.66H458.22V233.15Z"></path>
  <path class="cls-1" d="M300.27,276.79H286.61V220.64h13.66Z"></path>
  <path class="cls-2" d="M136.66,256.16c-3.45,0-6.9,0-10.36,0-.78,0-1.06-.2-1-1q0-6.54,0-13.07c0-.72.21-.95.94-.95q10.55,0,21.11,0c.63,0,.87.22.87.83q0,6.69,0,13.36c0,.7-.3.86-.95.85-3.52,0-7,0-10.56,0Z"></path>
  <path class="cls-2" d="M90.38,241.2v14.9c-.36,0-.67,0-1,0-6.89,0-13.77,0-20.65,0-.92,0-1.14-.29-1.13-1.16,0-4.29,0-8.59,0-12.89,0-.75.2-1,1-1,7,0,14,0,20.94,0C89.8,241.14,90.06,241.17,90.38,241.2Z"></path>
  <path class="cls-2" d="M96.76,277.27V262.49c.36,0,.7-.06,1-.06,6.72,0,13.44,0,20.17,0,.88,0,1.08.29,1.08,1.1,0,4.27,0,8.54,0,12.8,0,.6,0,1-.85,1-7,0-14,0-20.94,0C97.13,277.32,97,277.29,96.76,277.27Z"></path>
  <path class="cls-2" d="M125.31,277.34V262.5c.33,0,.64-.07,1-.07,7,0,13.9,0,20.85,0,.86,0,1.16.27,1.07,1.11-.52,5.37-2.37,10-7.12,13.08a4.75,4.75,0,0,1-2.74.76c-4-.05-7.95,0-11.92,0Z"></path>
  <path class="cls-2" d="M90.38,262.5v14.78c-.35,0-.69,0-1,0-3.65,0-7.31-.13-10.95.05a7.52,7.52,0,0,1-6-2.59,17.21,17.21,0,0,1-4.58-9.62c-.14-.85-.17-1.71-.26-2.66Z"></path>
  <path class="cls-1" d="M492,273.61v3.09l-.93.06v-7.53c1.32,0,2.58,0,3.83,0a1.67,1.67,0,0,1,1.74,1.13,2.14,2.14,0,0,1-.42,2.34c-.08.08-.16.18.05.25.24,1.23.48,2.45.72,3.69-.81.27-1.16.08-1.23-.78-.19-2.09.24-2.4-2.59-2.33Zm.06-1c.95,0,1.79,0,2.62,0s1.06-.53,1.1-1.23-.2-1.14-.84-1.2c-.94-.08-1.9,0-2.88,0Z"></path>
</svg>
