<?xml version="1.0" encoding="UTF-8"?>
<!-- Generator: Adobe Illustrator 26.0.1, SVG Export Plug-In . SVG Version: 6.00 Build 0)  -->
<svg xmlns="http://www.w3.org/2000/svg" xmlns:xlink="http://www.w3.org/1999/xlink" version="1.1" id="Laag_1" x="0px" y="0px" viewBox="0 0 500 500" style="enable-background:new 0 0 500 500;" xml:space="preserve">
<g>
	<path d="M118.8,189.4c-39.4,0-78.8,0.1-118.3,0.1c0,0-0.1,0.1-0.1,0.1c0,0-0.1,0.1-0.1,0.1c-0.4,4.7-0.2,119.3,0.2,120.8   c40.1,0,80.2,0,120.3,0c0.4-2.2,0.4-119.5-0.1-121.1C120.1,189.4,119.4,189.4,118.8,189.4z M102,285.4c-11.1,0-22,0-33.3,0   c-0.2-2.6-0.1-5.2-0.1-8c3.3-0.6,6.6-1.2,10-1.8c0.1-0.5,0.2-0.9,0.2-1.3c0-11.4,0-22.8-0.1-34.1c0-2.4-0.5-4.9-1.2-7.3   c-1.2-4.3-4.5-6.5-8.6-7.4c-7-1.5-15.1,0.3-20.1,7.8c-0.6,0.9-1,1.8-1,2.9c0,12.6,0,25.1,0,37.7c0,0.5,0.1,1,0.1,1.7   c3.4,0.6,6.8,1.2,10.2,1.8c0,2.7,0,5.3,0,8c-11.1,0-22.1,0-33.3,0c0-2.7,0-5.2,0-8c3.3-0.6,6.7-1.2,10.2-1.8c0-16.6,0-33,0-49.6   c-3.4-0.6-6.7-1.2-10.1-1.8c0-2.7,0-5.3,0-7.8c1.4-0.4,19.3-0.5,21.7-0.1c0.3,3,0.6,6.1,0.9,9.2c0.1,0.1,0.2,0.1,0.3,0.2   c0.4-0.5,0.8-1.1,1.2-1.6c7.4-9.6,21.3-12.2,31.8-6.2c6,3.4,9,8.8,10,15.4c0.5,3,0.7,6.1,0.7,9.2c0.1,10.3,0,20.5,0,30.8   c0,0.8,0,1.5,0,2.5c3.5,0.6,6.9,1.2,10.4,1.9C102,280.1,102,282.7,102,285.4z"></path>
	<path d="M448.1,267.7c0-7.7,0-15.4,0-23.1c0-4.5-1-8.8-3.3-12.8c-1.5-2.6-3.7-4.4-6.5-5.5c-6.1-2.4-15.9-1.5-21,7.9   c-0.3,0.6-0.6,1.1-1,1.9c-0.3-0.9-0.5-1.5-0.8-2c-1.4-3.2-3.5-5.8-6.8-7.3c-5.8-2.7-15.5-2-20.8,5.7c-0.3,0.4-0.7,0.8-1.2,1.6   c-0.2-2.8-0.4-5.2-0.5-7.5c-2.7-0.4-10.3-0.3-11.6,0.1c0,1,0,2.1,0,3.2c2.4,0.2,4.7,0.4,7,0.6c0,13.1,0,25.9,0,38.9   c-2.4,0.2-4.6,0.4-6.9,0.7c0,1.3,0,2.4,0,3.5c6.5,0,12.8,0,19.2,0c0-1.2,0-2.4,0-3.6c-2.4-0.2-4.6-0.4-7-0.7c0-0.9,0-1.6,0-2.3   c0-8.1,0-16.2,0-24.3c0-5.9,4.2-11.4,9.9-12.5c2.1-0.4,4.5-0.4,6.6-0.1c3.2,0.5,5.7,2.3,7,5.4c0.8,1.9,1.4,3.8,1.8,5.8   c0.3,1.9,0.2,3.9,0.2,5.9c0,6.7,0,13.5,0,20.2c0,0.7-0.1,1.4-0.1,2.1c-2.4,0.2-4.6,0.4-6.8,0.7c0,1.3,0,2.4,0,3.5   c6.5,0,12.8,0,19.2,0c0-1.2,0-2.3,0-3.5c-2.3-0.2-4.6-0.4-6.9-0.7c-0.1-0.4-0.2-0.7-0.2-0.9c0-8.4-0.1-16.7,0-25.1   c0.1-3.6,1.5-6.9,3.9-9.7c3-3.5,7-4.4,11.3-4c3.6,0.4,6.5,2,8,5.4c0.7,1.4,1.3,2.9,1.5,4.4c0.3,2.4,0.4,4.9,0.4,7.4   c0.1,6.7,0,13.5,0,20.2c0,0.7-0.1,1.4-0.1,2.1c-2.4,0.2-4.7,0.5-7,0.7c0,0.7,0,1.2,0,1.7c0,0.5,0.1,1,0.1,1.5   c2.3,0.4,17.8,0.3,19.2-0.1c0-1.1,0-2.1,0-3.3c-2.4-0.2-4.6-0.4-6.8-0.6C448.2,268.7,448.1,268.2,448.1,267.7z"></path>
	<path d="M309.8,268.2c0-8.2,0-16.3,0.1-24.5c0-3.9-0.8-7.5-2.5-11c-1.6-3.2-4.1-5.2-7.3-6.4c-6.1-2.2-15.2-0.9-19.9,6.4   c-0.3,0.5-0.4,1.2-1.3,1.4c-0.2-2.6-0.4-5.1-0.5-7.7c-3.9,0-7.7,0-11.5,0c0,1.2,0,2.3,0,3.5c2.4,0.2,4.7,0.5,6.9,0.7   c0.4,3.3,0.3,37.4-0.2,38.9c-2.2,0.2-4.5,0.4-6.8,0.7c0,0.9,0,1.6,0,2.3c0,0.4,0.1,0.7,0.1,1.2c6.4,0,12.7,0,19.1,0   c0-1.2,0-2.4,0-3.5c-2.4-0.2-4.7-0.4-7.1-0.7c0-0.9,0-1.5,0-2.2c0-7.9,0-15.8,0-23.7c0-6.1,4.7-12.2,10.6-13.4   c2.1-0.4,4.5-0.4,6.6-0.1c3.2,0.5,5.7,2.4,7.1,5.5c1,2.4,1.7,4.8,1.7,7.4c0,8.2,0,16.5,0,24.7c0,0.6-0.1,1.1-0.1,1.8   c-2.4,0.2-4.6,0.4-6.9,0.7c0,1.2,0,2.3,0,3.5c6.4,0,12.7,0,19.1,0c0-1.2,0-2.3,0-3.5c-2.4-0.2-4.6-0.4-6.9-0.6   C309.9,268.9,309.8,268.5,309.8,268.2z"></path>
	<path d="M361.5,266.3c0-8.4,0-16.7,0-25.1c0-7.9-4.1-13.2-11.8-15.2c-3.1-0.8-6.2-0.7-9.3-0.3c-4,0.5-7.7,2.1-11,4.5   c-0.9,0.7-1.2,1.4-1.2,2.5c0.1,2.2,0,4.4,0,6.7c0,0.5,0.1,1,0.2,1.5c1.4,0,2.7,0,4,0c0.2-1.9,0.4-3.6,0.5-5.4   c0.1-1.2,0.6-2,1.6-2.7c4-2.7,8.3-3.4,12.9-2.7c4.2,0.7,7.3,3.1,8.5,7.4c0.8,3,0.4,6.1,0.4,9.3c-0.9,0-1.6,0-2.3,0   c-3.3,0-6.7-0.1-10,0.1c-4.7,0.2-9.2,1.3-13.1,4.2c-4.6,3.5-6.3,8.3-4.9,14.3c1.2,5,5.6,8.7,10.9,9.3c7.1,0.8,13.1-1.5,17.8-7   c0.3-0.4,0.7-0.7,1.2-1.2c0.6,2.6,0.3,5.1,1.3,7.3c3.3,0,6.5,0,9.9,0c0-1.3,0-2.3,0-3.5c-1.9-0.1-3.6-0.3-5.6-0.4   C361.7,268.6,361.5,267.4,361.5,266.3z M356.3,260.4c0,0.5-0.3,1.1-0.7,1.6c-3.8,5.8-9.3,8.4-16.2,8.1c-4.1-0.2-7.4-2.9-8.3-6.4   c-1-3.9,0.6-8.1,3.9-10.3c2.2-1.4,4.5-2.6,7.1-2.7c4.6-0.2,9.3-0.1,14.2-0.1C356.3,254,356.4,257.2,356.3,260.4z"></path>
	<path d="M201.5,268.2c0-8.2,0-16.3,0.1-24.5c0-2.8-0.4-5.6-1.3-8.3c-1.8-5.2-5.2-8.6-10.6-9.7c-7.1-1.3-14,0.8-18.1,7.5   c-0.2,0.3-0.5,0.6-1,1.1c-0.2-2.9-0.3-5.4-0.5-8c-3.9,0-7.7,0-11.5,0c0,1.2,0,2.3,0,3.5c2.4,0.2,4.7,0.5,6.9,0.7   c0,13.1,0,25.9,0,38.9c-2.4,0.2-4.6,0.4-6.9,0.7c0,1.3,0,2.3,0,3.5c6.5,0,12.8,0,19.3,0c0-1.2,0-2.2,0-3.5c-2.4-0.2-4.6-0.4-7-0.7   c0-0.8-0.1-1.4-0.1-2.1c0-8,0-16.1,0-24.1c0-5.6,4.3-11.3,9.7-13c2.4-0.7,4.9-0.8,7.4-0.3c3.4,0.7,6,2.5,7.3,5.8   c1,2.4,1.6,4.8,1.6,7.4c0,7.9,0,15.8,0,23.7c0,0.8,0,1.5,0,2.5c-2.5,0.3-4.8,0.5-7.1,0.7c0,1.3,0,2.4,0,3.4c6.4,0,12.6,0,18.9,0   c0-1.2,0-2.3,0-3.5c-2.4-0.2-4.6-0.4-6.9-0.6C201.6,268.9,201.5,268.5,201.5,268.2z"></path>
	<path d="M500,250.1c0-2,0-3.6,0-5.2c-0.1-3.9-0.9-7.7-2.9-11.1c-4.2-7.4-12.8-9.5-19.7-7.9c-6.4,1.5-10.7,5.6-13.3,11.5   c-3.4,7.7-3.3,15.6-0.9,23.6c1.6,5,4.7,8.8,9.4,11.4c7.6,4.2,18.3,3,24.8-2.7c0.3-0.3,0.6-0.7,0.9-1c-0.7-1.1-1.3-2.1-2-3.2   c-3,2.5-6.1,4.2-9.7,4.8c-4.7,0.8-9.2,0.5-13-2.6c-5.5-4.5-6.7-10.6-6.6-17.4C478,250.1,488.8,250.1,500,250.1z M476.7,230.6   c5.8-2.3,13.9-0.3,16.7,7c1,2.6,1.5,5.2,1.2,8c-2.3,0.4-25.8,0.3-27.2-0.1C467.2,240.1,470.9,232.9,476.7,230.6z"></path>
	<path d="M256.6,237.8c-3.6-7.9-9.7-12.1-18.4-12.3c-8.3-0.2-15.5,4.4-18.7,11.8c-3.1,7.1-3.3,14.3-1.4,21.7   c2.5,9.8,10.5,16.1,20.7,15.7c7.4-0.3,13-3.6,16.7-9.9c2.7-4.5,3.6-9.5,3.4-14.9C259,245.8,258.3,241.6,256.6,237.8z M251.5,261.5   c-4.5,9.8-14.6,10.6-20.9,7.1c-3.5-2-5.8-5-7.1-8.8c-2.2-6.8-2.3-13.7,0.4-20.4c4.4-11.2,16-11.6,22.1-7.4c2.6,1.8,4.5,4.1,5.7,7.1   c1.4,3.5,2.1,7.1,1.9,10.9C253.9,254.1,253.2,257.9,251.5,261.5z"></path>
</g>
</svg>
