<?xml version="1.0" encoding="UTF-8"?>
<!-- Generator: Adobe Illustrator 24.1.1, SVG Export Plug-In . SVG Version: 6.00 Build 0)  -->
<svg xmlns="http://www.w3.org/2000/svg" xmlns:xlink="http://www.w3.org/1999/xlink" version="1.1" id="Laag_1" x="0px" y="0px" viewBox="0 0 500 500" style="enable-background:new 0 0 500 500;" xml:space="preserve">
<style type="text/css">
	.st0{fill:#231F20;}
	.st1{fill:#EF4E23;}
</style>
<g>
	<path class="st0" d="M212.4,221.1c-6.5,0-13.2,1.8-21.5,6.2l4.6,11.4c7.2-4,13.2-5.8,17.5-5.8c4.9,0,7.1,1.8,7.1,4.3v0.2   c0,1.7-1.3,2.6-4.6,2.9l-5.7,0.6c-14.3,1.5-20.1,7.7-20.1,16.3v0.6c0,8.1,6.7,14.5,16.2,14.5c6.2,0,11.7-2.6,15-7.3l1.1,6.4h12.9   v-29.3C234.9,228.3,226.9,221.1,212.4,221.1 M211.2,261.1c-4.8,0-7-1.8-7-4.7v-0.2c0-2.5,1.4-4.4,6.6-5.1l2.3-0.3   c3.3-0.5,5.3-1.1,7.2-2.2v3.7C220.2,257.9,216.7,261.1,211.2,261.1"></path>
	<polygon class="st1" points="91,221.4 74.5,204.9 58,221.4 66.2,229.6 24.7,271 41.3,287.6 57.8,271 49.6,262.8  "></polygon>
	
		<rect x="-0.3" y="222.2" transform="matrix(0.7071 -0.7071 0.7071 0.7071 -156.8692 88.9795)" class="st1" width="58.6" height="23.4"></rect>
	
		<rect x="57.5" y="246.9" transform="matrix(0.7071 -0.7071 0.7071 0.7071 -157.4418 137.0891)" class="st1" width="58.6" height="23.4"></rect>
	<rect x="243.3" y="204.3" class="st0" width="14.7" height="67.1"></rect>
	<path class="st0" d="M165.1,221.1c-6.7,0-12,3-15,7.6l-1.1-6.7h-12.9v66.3h14.7v-23c2.8,4.3,8.1,7,14.3,7   c11.7,0,21.3-10.4,21.3-24.7v-1.7C186.4,231.5,176.9,221.1,165.1,221.1 M171.3,247.1c0,7.5-3.9,13-10.5,13s-10.5-5.5-10.5-13v-0.8   c0-7.5,3.9-13,10.5-13s10.5,5.5,10.5,13V247.1z"></path>
	<path class="st0" d="M456,221.1c-15,0-25.6,10.4-25.6,24.7v1.7c0,14.3,10.6,24.7,25.6,24.7c15,0,25.6-10.4,25.6-24.7v-1.7   C481.5,231.5,471,221.1,456,221.1 M466.5,247.1c0,7.5-3.9,13-10.5,13c-6.5,0-10.5-5.5-10.5-13v-0.8c0-7.5,3.9-13,10.5-13   c6.5,0,10.5,5.5,10.5,13V247.1z"></path>
	<path class="st0" d="M495.4,224.1v-0.3c0-1.4-1.1-2.4-3-2.4H489v7.7h1.6v-2.6h1.8l1.3,2.6h1.8l-1.6-3.1   C494.8,225.8,495.4,225,495.4,224.1 M490.6,222.8h1.8c1,0,1.4,0.3,1.4,1.1v0.1c0,0.7-0.4,1.1-1.4,1.1h-1.8V222.8z"></path>
	<path class="st0" d="M492,217.3c-4.5,0-8,3.4-8,8c0,4.5,3.4,8,8,8c4.5,0,8-3.4,8-8C500,220.7,496.6,217.3,492,217.3 M492,232.1   c-3.9,0-6.8-2.9-6.8-6.9c0-4,2.9-6.9,6.8-6.9c3.9,0,6.8,2.9,6.8,6.9C498.8,229.3,496,232.1,492,232.1"></path>
	<rect x="372.5" y="204.3" class="st0" width="14.7" height="67.1"></rect>
	<path class="st0" d="M416.1,260.1c-4.3,0-5.9-2.1-5.9-6.6v-20.2h17.3v-11.3h-17.3v-11.3l-14.7,2.2v42.1c0,11.5,5.9,17.4,17.6,17.4   c5.2,0,11.3-1.6,16.4-4.4l-4.2-10.4C422.4,259,418.3,260.1,416.1,260.1"></path>
	<path class="st0" d="M341.7,221.1c-6.5,0-13.2,1.8-21.5,6.2l4.6,11.4c7.2-4,13.2-5.8,17.5-5.8c4.9,0,7.1,1.8,7.1,4.3v0.2   c0,1.7-1.3,2.6-4.6,2.9l-5.7,0.6c-14.3,1.5-20.1,7.7-20.1,16.3v0.6c0,8.1,6.7,14.5,16.2,14.5c6.2,0,11.7-2.6,15-7.3l1.1,6.4h12.9   v-29.3C364.1,228.3,356.2,221.1,341.7,221.1 M340.4,261.1c-4.8,0-7-1.8-7-4.7v-0.2c0-2.5,1.4-4.4,6.6-5.1l2.3-0.3   c3.3-0.5,5.3-1.1,7.2-2.2v3.7C349.5,257.9,345.9,261.1,340.4,261.1"></path>
	<path class="st0" d="M290.1,221.1c-15,0-25.6,10.4-25.6,24.7v1.7c0,14.3,10.6,24.7,25.6,24.7s25.6-10.4,25.6-24.7v-1.7   C315.7,231.5,305.1,221.1,290.1,221.1 M300.6,247.1c0,7.5-3.9,13-10.5,13s-10.5-5.5-10.5-13v-0.8c0-7.5,3.9-13,10.5-13   s10.5,5.5,10.5,13V247.1z"></path>
	<polygon class="st0" points="350.2,283.3 353.9,283.3 359.1,290.1 359.2,290.1 359.2,283.3 362.6,283.3 362.6,295.3 359,295.3    353.7,288.3 353.6,288.3 353.6,295.3 350.2,295.3  "></polygon>
	<polygon class="st0" points="367.2,283.3 377.8,283.3 377.9,286.2 370.8,286.2 370.8,287.9 376.4,287.9 376.4,290.5 370.8,290.5    370.8,292.4 378.1,292.4 378,295.3 367.2,295.3  "></polygon>
	<polygon class="st0" points="385.4,286.4 381.2,286.4 381.4,283.3 393.2,283.3 393.3,286.4 389.1,286.4 389.1,295.3 385.4,295.3     "></polygon>
	<polygon class="st0" points="396.2,283.3 400.1,283.3 402.1,291.7 402.2,291.7 404.8,283.3 408.3,283.3 410.8,291.7 411,291.7    413,283.3 416.6,283.3 413.5,295.3 408.7,295.3 406.5,288.1 406.4,288.1 404.2,295.3 399.4,295.3  "></polygon>
	<path class="st0" d="M419.3,289.3c0-3.9,2.7-6.4,6.9-6.4c4.2,0,6.9,2.5,6.9,6.4s-2.7,6.4-6.9,6.4   C422,295.7,419.3,293.2,419.3,289.3 M429.5,289.3c0-2.1-1.2-3.3-3.3-3.3c-2.1,0-3.3,1.2-3.3,3.3c0,2.1,1.2,3.3,3.3,3.3   C428.3,292.6,429.5,291.4,429.5,289.3"></path>
	<path class="st0" d="M437,283.3h7c3.2,0,4.8,1.5,4.8,4.3c0,1.9-0.8,3.2-2.3,3.9l2.9,3.9h-4.1l-2.2-3.2h-2.4v3.2H437V283.3z    M443.6,289.3c1.2,0,1.6-0.7,1.6-1.6s-0.4-1.6-1.6-1.6h-2.9v3.2H443.6z"></path>
	<polygon class="st0" points="453.5,283.3 457.2,283.3 457.2,287.7 458.6,287.7 462.2,283.3 466.2,283.3 466.3,283.3 461.6,289.1    466.5,295.3 466.5,295.3 462.3,295.3 458.6,290.7 457.2,290.7 457.2,295.3 453.5,295.3  "></polygon>
	<path class="st0" d="M469.3,294.6v-3.3h0c2,1,4,1.5,5.7,1.5c1.3,0,1.9-0.3,1.9-0.9c0-0.6-0.4-0.8-3-1.2c-2.8-0.4-4.7-1.3-4.7-3.7   c0-2.3,2-4,5.9-4c1.6,0,3.2,0.3,4.7,1v3.3l0,0c-1.4-0.8-3.4-1.3-4.9-1.3c-1.4,0-1.9,0.3-1.9,0.9c0,0.7,0.8,0.8,3,1.1   c2.8,0.5,4.7,1.3,4.7,3.8c0,2-1.5,4-5.7,4C472.7,295.7,471.1,295.2,469.3,294.6"></path>
</g>
</svg>
