<?xml version="1.0" encoding="UTF-8"?>
<svg xmlns="http://www.w3.org/2000/svg" id="Laag_1" data-name="Laag 1" viewBox="0 0 500 500">
  <title>Tekengebied 1</title>
  <path d="M299.56,228.05c-7.61-9.2-24.24-10.66-32.14,0a11.66,11.66,0,0,1-1.22,1.11v-6.51H252v74.2h14.5V269.62a7.9,7.9,0,0,1,1.07.84c6.79,9.2,25.32,10.76,33.72-3.07,7.06-11.61,6.87-23.82.74-35.91A19.56,19.56,0,0,0,299.56,228.05Zm-10,30.38c-1.95,4.57-5.72,6.74-10.72,6.63s-8.88-2.32-10.65-7.11c-1.05-2.82-1.37-5.92-2-9,.72-3.17,1.1-6.33,2.16-9.25,1.68-4.64,5.39-6.75,10.27-6.83s8.72,1.65,10.74,6.18A23.51,23.51,0,0,1,289.53,258.43Z"></path>
  <path d="M46.67,227.07c-7.4-8-23.23-9.56-31.14.81A11.12,11.12,0,0,1,14.16,229v-6.38H0v74.11H14.6V269.64a6.82,6.82,0,0,1,1,.88c6.68,9,24.35,10.39,33.25-2.31,7.08-10.09,7.42-27.35.6-37.64A29.5,29.5,0,0,0,46.67,227.07Zm-9,31.07c-1.91,4.7-5.67,7-10.79,6.92S18,262.79,16.2,258c-1.08-2.9-1.4-6.08-2.06-9.13.72-3.16,1.1-6.24,2.13-9.08,1.68-4.64,5.35-6.79,10.23-6.89s8.87,1.7,10.89,6.34A23.6,23.6,0,0,1,37.68,258.14Z"></path>
  <path d="M192.11,221.49c-2.73-.64-5.57-.8-8.36-1.18-16.94.24-27.28,9.62-28.56,26.11-1.24,16,6.93,27.66,21.44,30.35a41.24,41.24,0,0,0,9.42.58c13.16-.62,22.33-7.79,25.2-19.52a36.33,36.33,0,0,0,.23-16.56C209.16,230.63,202.72,224,192.11,221.49Zm3.32,36.07c-1.89,5.14-5.94,7.87-11.5,7.93-5.72.07-9.88-2.57-11.94-7.67a15.63,15.63,0,0,1-1-3.34c-.31-1.79-.46-3.61-.7-5.63a62.67,62.67,0,0,1,.89-6.23c1.57-6.53,6-10,12.46-10s10.84,3.4,12.45,10A25.25,25.25,0,0,1,195.43,257.56Z"></path>
  <path d="M348.59,221.59c-2.88-.7-5.89-.89-8.84-1.31l0,.37c-1.08,0-2.17-.06-3.24,0-12.22.79-21.28,7.74-24,19a42.7,42.7,0,0,0-1.09,12.09c.69,13.54,8.41,22.57,21.18,25a41.24,41.24,0,0,0,9.67.62c13.2-.67,22.25-7.8,25.13-19.6a35.87,35.87,0,0,0,0-17.53C364.82,230.29,358.55,224,348.59,221.59Zm3,35.61c-1.86,5.41-6,8.26-11.74,8.29s-10.09-2.69-11.92-8a61.28,61.28,0,0,1-1.7-7.94c.39-2.76.52-4.93,1-7,1.56-6.46,6.06-9.95,12.55-9.92s10.7,3.41,12.3,9.87A25.53,25.53,0,0,1,351.63,257.2Z"></path>
  <path d="M151.5,244.79c-1.09-12.3-8.67-21.12-20.59-23.42a44.14,44.14,0,0,0-11.65-.6c-12.73.93-21.56,8.57-23.88,20.64a43,43,0,0,0-.6,11.15c1,13.08,8.66,21.83,21.21,24.19a41.33,41.33,0,0,0,9.42.61c13.37-.61,22.56-7.86,25.35-19.94.63-2.73.79-5.57,1.16-8.37l-.19,0C151.65,247.61,151.62,246.19,151.5,244.79ZM134.63,258c-1.89,5.09-5.94,7.4-11.27,7.46s-9.61-2.12-11.71-7.23a23.87,23.87,0,0,1-.12-18.24c2-5.07,6.27-7.55,12.09-7.42,5.44.13,9.53,2.82,11.24,7.89a72,72,0,0,1,1.82,8.74C136,252.1,135.68,255.19,134.63,258Z"></path>
  <path d="M440.62,223.05c-7.91-3.88-19-2.3-25.45,3.62-.49.45-1,.87-2,1.71v-5.77h-14.5v52.9h14.89c0-10.09,0-19.88,0-29.67a24.54,24.54,0,0,1,.32-4.46c1.05-5.75,5.87-9,12.5-8.42,5.05.42,7.26,3.26,7.44,9.61,0,.83,0,1.66,0,2.49v30.38h14.86c0-13.46.22-26.74-.1-40A13.61,13.61,0,0,0,440.62,223.05Z"></path>
  <path d="M233.86,203.38c-8.76,1-12.51,5.39-12.56,14.26,0,1.54,0,3.08,0,4.94H213.4v10h7.9v42.87h14.82v-43h9.06V222.37h-9.27c0-1.09,0-1.91,0-2.73,0-3.92.85-4.77,4.84-4.9,1.47-.05,2.93,0,4.42,0V203.32C241.29,203.32,237.54,203,233.86,203.38Z"></path>
  <path d="M475.52,208.1H460.58v14.35H453.4V232.5h7.22v3.11c0,8.48-.06,17,0,25.43a43.65,43.65,0,0,0,.79,7.91,7.8,7.8,0,0,0,5.31,6.12c5.74,2,11.58,1.19,17.37.84V265.29c-1.41,0-2.65,0-3.89,0-4.09-.12-4.6-.62-4.6-4.64q0-11.1,0-22.19v-5.94h8.5V222.38h-8.61Z"></path>
  <path d="M74.93,230.47l-.52-.3V222.6H60.56v52.92h15v-3c0-8.07,0-16.13,0-24.2,0-9,3.75-12.75,12.72-12.8,1.46,0,2.93,0,4.44,0v-14.4C84.56,220.22,79,223.81,74.93,230.47Z"></path>
  <path d="M374.3,275.45h14.75V222.59H374.3Z"></path>
  <path d="M374.34,216.47H389.1V203.78H374.34Z"></path>
  <path d="M494.91,266.49a4.95,4.95,0,1,0,5.09,4.94A5,5,0,0,0,494.91,266.49Zm0,8.78a3.84,3.84,0,1,1,3.88-3.84A3.77,3.77,0,0,1,494.91,275.27Z"></path>
  <path d="M497.06,270.45a1.69,1.69,0,0,0-1.79-1.65h-2.21v5.26h1.21v-2h.57l1,2h1.38l-1.14-2.22A1.47,1.47,0,0,0,497.06,270.45Zm-1.95.68h-.84v-1.36h.84a.68.68,0,1,1,0,1.36Z"></path>
</svg>
