<?xml version="1.0" encoding="UTF-8"?>
<svg xmlns="http://www.w3.org/2000/svg" id="Laag_1" data-name="Laag 1" viewBox="0 0 500 500">
  <defs>
    <style>.cls-1{fill:#d0d2d3;}.cls-2{fill:#b4121b;}.cls-3{fill:#faaf3f;}.cls-4{fill:#00843f;}.cls-5{fill-rule:evenodd;}</style>
  </defs>
  <title>Tekengebied 1</title>
  <path d="M88.7,220.2A12.25,12.25,0,1,1,101,232.45,12.24,12.24,0,0,1,88.7,220.2Z"></path>
  <path class="cls-1" d="M.14,220.2a12.25,12.25,0,1,1,12.25,12.25A12.24,12.24,0,0,1,.14,220.2Z"></path>
  <path class="cls-1" d="M29.54,220.2a12.25,12.25,0,1,1,12.25,12.25A12.24,12.24,0,0,1,29.54,220.2Z"></path>
  <path class="cls-1" d="M88.76,250A12.26,12.26,0,1,1,101,262.25,12.26,12.26,0,0,1,88.76,250Z"></path>
  <path class="cls-2" d="M59.09,220.2a12.25,12.25,0,1,1,12.25,12.25A12.25,12.25,0,0,1,59.09,220.2Z"></path>
  <path class="cls-3" d="M59.09,250a12.25,12.25,0,1,1,12.25,12.25A12.26,12.26,0,0,1,59.09,250Z"></path>
  <path class="cls-1" d="M29.87,279.8a12.25,12.25,0,1,1,12.25,12.25A12.24,12.24,0,0,1,29.87,279.8Z"></path>
  <path class="cls-4" d="M59.09,279.75A12.25,12.25,0,1,1,71.34,292a12.25,12.25,0,0,1-12.25-12.25Z"></path>
  <path class="cls-5" d="M138.19,247.19v44.36h9l0-50.88h22.07v-7.91h-12C142.33,232.76,138.19,231.86,138.19,247.19Z"></path>
  <path class="cls-5" d="M183.79,232.47V241c21.73,0,25.6,1,25.6,12.25H193.1c-12.44,0-19.61,2.34-19.61,19.32a30.64,30.64,0,0,0,1,8.3h0c2.41,8.68,9.2,10.3,18.15,10.3,6.32,0,13.67-.24,16.55-7.26v7.48h9.23V252.31C218.39,232.08,204.11,232.47,183.79,232.47Zm21.83,48.42h0c-2.77,2.09-6.91,2.16-11,2.16-4.54,0-7.7-.17-9.61-2.17h0c-1.56-1.63-2.3-4.48-2.3-9.42,0-9.39,3.43-10.12,11.91-10,6.34,0,14.34,0,14.34,0v10.82C209,276.73,207.66,279.35,205.62,280.89Z"></path>
  <path class="cls-5" d="M268.3,232.47H250.68c-19.47,0-21.33,12.21-21.33,29.53,0,7.49.35,13.95,2.28,18.89h0c2.58,6.62,8,10.5,19.05,10.5,15.8,0,17.6-8.31,17.6-8.31v8.34h9V211.14h-9Zm0,29.71c0,10.57-.93,16.11-4.8,18.71h0c-2.15,1.44-5.21,2-9.53,2-4.47,0-7.7-.36-10-2h0c-3.38-2.43-4.65-7.68-4.65-18.71,0-18.68,2.76-20.82,14.63-20.82,8.11,0,14.37-.08,14.37,0C268.3,244.71,268.26,256.91,268.26,262.18Z"></path>
  <polygon class="cls-5" points="340.51 273.83 326.74 232.47 319.28 232.47 305.86 273.83 295.53 232.47 286.25 232.47 300.71 291.42 309.04 291.42 322.75 246.99 336.56 291.42 344.92 291.42 358.79 232.47 350.13 232.47 340.51 273.83"></polygon>
  <path class="cls-5" d="M371.52,232.47V241c21.72,0,25.61,1,25.61,12.25H380.82c-12.43,0-19.6,2.34-19.6,19.32a31.08,31.08,0,0,0,1,8.3h0c2.42,8.68,9.2,10.3,18.16,10.3,6.31,0,13.68-.24,16.54-7.26v7.48h9.25V252.31C406.13,232.08,391.84,232.47,371.52,232.47Zm25.17,39.76c0,4.5-1.3,7.12-3.34,8.66h0c-2.77,2.09-6.9,2.16-11,2.16-4.52,0-7.68-.17-9.6-2.17h0c-1.56-1.63-2.31-4.48-2.31-9.42,0-9.39,3.43-10.12,11.91-10,6.35,0,14.36,0,14.36,0Z"></path>
  <path class="cls-5" d="M415.81,247.19v44.36h9l0-50.88h22.07v-7.91h-12C419.94,232.76,415.81,231.86,415.81,247.19Z"></path>
  <path class="cls-5" d="M476,231.58c-23.8,0-31.5,31.86-20,49.31h0c4.47,6.81,11.83,11.42,22.28,11.13a51,51,0,0,0,20.37-4.84s0-9.45,0-9.48a35,35,0,0,1-7.17,3.17h0c-6.77,2.23-16.12,3.64-22.83,0h0c-4.95-2.68-8.46-8.09-8.46-17.94h39.42S504.26,231.58,476,231.58Zm-15.78,22.93c.72-5,4.11-14.94,16.32-14.94s14.08,9.54,14.29,14.94Z"></path>
</svg>
