<?xml version="1.0" encoding="UTF-8"?>
<svg xmlns="http://www.w3.org/2000/svg" xmlns:xlink="http://www.w3.org/1999/xlink" version="1.1" id="Laag_1" x="0px" y="0px" viewBox="0 0 500 500" style="enable-background:new 0 0 500 500;" xml:space="preserve">
<style type="text/css">
	.st0{fill:#F0F0F0;}
	.st1{fill:url(#SVGID_1_);}
	.st2{fill:url(#SVGID_00000023990940011229878500000013063936843094903988_);}
	.st3{fill:#000035;}
</style>
<g>
	<g>
		<path class="st0" d="M102.2,249.1c0,8.7-2.3,17.3-6.4,24.8s-10.3,14-17.7,18.6c-0.4,0.2-0.9,0.4-1.5,0.4s-1.1-0.1-1.5-0.4    l-24.1-13.9l-24.2,14c-0.4,0.2-0.9,0.4-1.5,0.4s-1.1-0.1-1.5-0.4c-7.4-4.6-13.5-11-17.7-18.6C2.2,266.4,0,257.8,0,249.1    s2.3-17.3,6.4-24.8s10.4-14,17.7-18.6l0,0c0.4-0.2,0.9-0.4,1.5-0.4c0.6,0,1.1,0.1,1.5,0.4l24.2,13.9l24-13.9    c0.4-0.3,0.9-0.4,1.5-0.4c0.5,0,1.1,0.1,1.5,0.4l0,0c7.4,4.6,13.5,11,17.7,18.6C100.1,231.9,102.2,240.4,102.2,249.1L102.2,249.1z    "></path>
		
			<radialGradient id="SVGID_1_" cx="55.7363" cy="327.1057" r="46.7614" gradientTransform="matrix(1 0 0 -1 0 576.126)" gradientUnits="userSpaceOnUse">
			<stop offset="0" style="stop-color:#FFFFFF"></stop>
			<stop offset="0.96" style="stop-color:#23D0FF"></stop>
		</radialGradient>
		<path class="st1" d="M102.2,249.1c0,8.7-2.3,17.3-6.4,24.8s-10.3,14-17.7,18.6c-0.4,0.2-0.9,0.4-1.5,0.4s-1.1-0.1-1.5-0.4    l-24.1-13.9l22.8-13.2c0.8-0.5,1.5-1.1,2-2c0.5-0.8,0.7-1.7,0.7-2.8v-23c0-1.1-0.3-1.9-0.7-2.8c-0.5-0.8-1.2-1.5-2-2l-22.8-13.2    l24.1-13.9c0.4-0.3,0.9-0.4,1.5-0.4c0.5,0,1.1,0.1,1.5,0.4l0,0c7.4,4.6,13.5,11,17.7,18.6C100.1,231.9,102.2,240.4,102.2,249.1    L102.2,249.1z"></path>
		
			<radialGradient id="SVGID_00000096779490821166512150000005802625571417726881_" cx="46.8333" cy="327.2323" r="46.7383" gradientTransform="matrix(1 0 0 -1 0 576.126)" gradientUnits="userSpaceOnUse">
			<stop offset="0" style="stop-color:#FFFFFF"></stop>
			<stop offset="1" style="stop-color:#00FF91"></stop>
		</radialGradient>
		<path style="fill:url(#SVGID_00000096779490821166512150000005802625571417726881_);" d="M28.3,265.5l22.8,13l-24.2,14    c-0.4,0.2-0.9,0.4-1.5,0.4c-0.6,0-1.1-0.1-1.5-0.4c-7.4-4.6-13.5-11-17.7-18.6C2.1,266.3,0,257.8,0,249.1s2.3-17.3,6.4-24.8    s10.4-14,17.7-18.6l0,0c0.4-0.2,0.9-0.4,1.5-0.4c0.6,0,1.1,0.1,1.5,0.4l24.2,13.9l-22.9,13.1c-0.8,0.5-1.5,1.1-2,2    c-0.5,0.8-0.7,1.7-0.7,2.8v23.2c0,1.1,0.3,1.9,0.7,2.8C26.7,264.3,27.5,265,28.3,265.5L28.3,265.5z"></path>
	</g>
	<g>
		<path class="st3" d="M155,248.5l17.1-26.6c0.3-0.4,0.3-1.1,0.1-1.5c-0.2-0.4-0.7-0.7-1.2-0.7h-7.7c-0.5,0-0.9,0.2-1.2,0.6    l-12.5,19.9l-12.8-19.9c-0.3-0.4-0.7-0.6-1.2-0.6h-7.7c-0.5,0-1.1,0.3-1.2,0.7c-0.2,0.5-0.2,1.1,0.1,1.5l17.3,26.6l-18.7,27.8    c-0.3,0.4-0.3,1.1-0.1,1.5c0.2,0.5,0.7,0.7,1.2,0.7h7.7c0.5,0,0.9-0.2,1.1-0.6l14-21.2l13.9,21.2c0.3,0.4,0.7,0.6,1.1,0.6h7.7    c0.5,0,1.1-0.3,1.2-0.7c0.2-0.4,0.2-1.1-0.1-1.5L155,248.5L155,248.5z"></path>
		<path class="st3" d="M232.3,219.8H230c-0.4,0-0.9,0.2-1.1,0.6l-22.4,30.2l-22.2-30.2c-0.3-0.3-0.7-0.6-1.1-0.6h-2.4    c-0.8,0-1.5,0.6-1.5,1.5v55.9c0,0.8,0.6,1.5,1.5,1.5h6.6c0.8,0,1.5-0.6,1.5-1.5v-35.4l15.4,20.6c0.3,0.3,0.7,0.6,1.1,0.6h2.4    c0.4,0,0.8-0.2,1.1-0.6l15.3-20.6V277c0,0.8,0.6,1.5,1.5,1.5h6.6c0.8,0,1.5-0.6,1.5-1.5v-55.8    C233.6,220.4,232.9,219.8,232.3,219.8L232.3,219.8z"></path>
		<path class="st3" d="M297.9,227.8c7.3,0,12.8,3,17.1,9.2c0.2,0.3,0.6,0.5,0.9,0.6c0.4,0.1,0.8,0,1.1-0.3l4.9-3.9    c0.6-0.4,0.7-1.2,0.3-1.9c-2.4-3.9-5.9-7-10.1-9.2c-4.3-2.3-9-3.4-14.2-3.4c-8.5,0-15.7,3-21.6,8.8c-5.8,5.8-8.9,13-8.9,21.6    s3,15.7,8.9,21.6c5.8,5.8,13.2,8.8,21.6,8.8c5.2,0,10.1-1.1,14.2-3.4c4.3-2.3,7.7-5.4,10.1-9.3c0.4-0.6,0.2-1.5-0.3-1.9l-4.9-3.9    c-0.3-0.2-0.7-0.3-1.1-0.3c-0.4,0.1-0.7,0.3-0.9,0.6c-4.2,6.4-9.8,9.4-17.1,9.4c-5.9,0-10.9-2-14.8-6.2c-4-4.1-6-9.2-6-15.2    c0-6,2-11.3,6-15.2C286.9,229.8,291.9,227.8,297.9,227.8L297.9,227.8z"></path>
		<path class="st3" d="M397.7,233.5c-3.2,0-6.4,0.7-9.3,1.9c-1.6,0.8-3.2,1.7-4.5,2.8v-24.7c0-0.8-0.6-1.5-1.5-1.5h-6.6    c-0.8,0-1.5,0.6-1.5,1.5V277c0,0.8,0.6,1.5,1.5,1.5h6.2c0.8,0,1.5-0.6,1.5-1.5v-2.8c1.3,1.2,2.8,2.3,4.6,3.1    c3,1.5,6.2,2.1,9.7,2.1c6.2,0,11.4-2.3,15.6-6.6c4.1-4.4,6.2-9.8,6.2-16.3c0-6.5-2-12-6.2-16.4    C409.3,235.7,403.9,233.5,397.7,233.5L397.7,233.5z M410.1,256.4c0,4.1-1.2,7.5-3.8,10.2c-2.6,2.7-5.6,4-9.5,4    c-3.6,0-6.6-1.2-9.2-3.6c-2.4-2.4-3.8-5.8-3.8-10.5c0-4.7,1.2-8.2,3.8-10.5c2.6-2.4,5.5-3.6,9.1-3.6c3.8,0,6.9,1.3,9.4,4    C408.8,248.9,410.1,252.4,410.1,256.4L410.1,256.4z"></path>
		<path class="st3" d="M447.2,233.5c-6.3,0-11.7,2.3-16,6.6c-4.3,4.4-6.6,9.9-6.6,16.4c0,6.5,2.3,12,6.6,16.4s10.1,6.6,16.5,6.6    c6.5,0,12.8-2.6,17.6-7.7c0.5-0.5,0.5-1.3,0-1.9l-3.8-4.4c-0.2-0.3-0.6-0.5-1.1-0.5s-0.8,0.1-1.1,0.4c-3.5,3.5-7.4,5.2-11.7,5.2    c-3.6,0-6.9-1.1-9.3-3.4c-2.1-1.9-3.5-4.4-4.1-7.4h30.9c0.6,0,1.2-0.5,1.3-1.1c0.3-1.6,0.5-3.4,0.5-5.2c0-5.8-1.9-10.6-5.8-14.4    C457.8,235.4,453,233.5,447.2,233.5L447.2,233.5z M439,245.1c2.3-1.9,5-3,8.1-3c3.1,0,5.6,0.9,7.8,2.8c1.7,1.6,2.8,3.6,3.1,6.2    h-22.8C435.8,248.8,437.1,246.8,439,245.1L439,245.1z"></path>
		<path class="st3" d="M498.9,234.5c-1.2-0.2-2.4-0.4-3.4-0.4c-4.5,0-8.3,1.3-11.3,4.1v-2.4c0-0.8-0.6-1.5-1.5-1.5h-6.2    c-0.8,0-1.5,0.6-1.5,1.5V277c0,0.8,0.6,1.5,1.5,1.5h6.6c0.8,0,1.5-0.6,1.5-1.5v-23.3c0-3.4,1.1-5.9,3.2-7.8c2.3-1.9,5-2.8,8.3-2.8    h2.4c0.8,0,1.5-0.6,1.5-1.5v-5.8C500.1,235.2,499.7,234.6,498.9,234.5L498.9,234.5z"></path>
		<path class="st3" d="M367.3,234.3h-6.2c-0.6,0-1.2,0.4-1.5,0.9L346.7,266l-12.2-30.9c-0.2-0.6-0.8-1.1-1.5-1.1H327    c-0.5,0-1.1,0.2-1.3,0.7c-0.3,0.4-0.3,0.9-0.2,1.5l16.4,41.3l-6.4,15c-0.2,0.5-0.1,1.1,0.1,1.5c0.3,0.4,0.8,0.7,1.3,0.7h6.2    c0.6,0,1.2-0.4,1.5-0.9l24.4-57.5c0.2-0.5,0.1-1.1-0.1-1.5C368.3,234.6,367.8,234.3,367.3,234.3L367.3,234.3z"></path>
	</g>
</g>
</svg>
