<svg id="Capa_1" enable-background="new 0 0 512 512" height="512" viewBox="0 0 512 512" width="512" xmlns="http://www.w3.org/2000/svg" xmlns:xlink="http://www.w3.org/1999/xlink"><linearGradient id="SVGID_1_" gradientUnits="userSpaceOnUse" x1="256" x2="256" y1="496.996" y2=".004"><stop offset="0" stop-color="#fd5900"/><stop offset="1" stop-color="#ffde00"/></linearGradient><linearGradient id="SVGID_2_" gradientUnits="userSpaceOnUse" x1="256" x2="256" y1="511.996" y2="209.996"><stop offset="0" stop-color="#ffe59a"/><stop offset="1" stop-color="#ffffd5"/></linearGradient><g id="Firewall_2_"><g><g><path d="m361 119.996c0-57.158-63.926-85.635-66.65-87.466-4.629-3.105-10.576-3.413-15.41-.762-4.893 2.607-7.939 7.69-7.939 13.228v45c0 8.276-6.738 15-15 15s-15-6.724-15-15v-75c0-6.284-3.926-11.895-9.814-14.077-5.918-2.153-12.51-.425-16.582 4.336-2.609 3.032-63.605 60.029-63.605 114.741 0 57.891 47.109 105 105 105s105-47.109 105-105zm-105 105h-241v272h482v-272z" fill="url(#SVGID_1_)"/></g></g><g><g><path d="m497 209.996h-482c-8.291 0-15 6.709-15 15v272c0 8.291 6.709 15 15 15h482c8.291 0 15-6.709 15-15v-272c0-8.291-6.709-15-15-15zm-346 30h210v61h-210zm-121 0h91v61h-91zm0 91h211v60h-211zm91 151h-91v-61h91zm240 0h-210v-61h210zm121 0h-91v-61h91zm0-91h-211v-60h211zm0-90h-91v-61h91z" fill="url(#SVGID_2_)"/></g></g></g></svg>