<svg id="Capa_1" enable-background="new 0 0 512 512" height="512" viewBox="0 0 512 512" width="512" xmlns="http://www.w3.org/2000/svg" xmlns:xlink="http://www.w3.org/1999/xlink"><linearGradient id="SVGID_1_" gradientUnits="userSpaceOnUse" x1="256" x2="256" y1="512" y2="0"><stop offset="0" stop-color="#fd5900"/><stop offset="1" stop-color="#ffde00"/></linearGradient><linearGradient id="SVGID_2_" gradientUnits="userSpaceOnUse" x1="256" x2="256" y1="477.499" y2="34.499"><stop offset="0" stop-color="#ffe59a"/><stop offset="1" stop-color="#ffffd5"/></linearGradient><g><g><g><path d="m241 87.299 15 33.701 15-33.701c11.4-3.9 20.4-11.999 25.499-22.8v-.299l34.501-4.2-31.5-25.501c-4.5-19.799-22.199-34.499-43.5-34.499s-39 14.7-43.5 34.499l-31.5 26.501 34.501 3.2c4.799 10.8 14.099 19.199 25.499 23.099zm236.499 125.201-25.499-31.5-4.501 34.799c-10.8 4.801-18.9 13.801-22.798 25.201l-33.701 15 33.701 15c3.898 11.4 11.999 20.4 22.798 25.499h.3l4.201 34.501 25.499-31.5c19.801-4.5 34.501-22.201 34.501-43.5 0-21.301-14.7-39-34.501-43.5zm-206.499 212.199-15-33.699-15 33.699c-11.4 3.9-20.4 12.001-25.499 22.8v.3l-34.501 3.201 31.5 26.499c4.5 19.801 22.199 34.501 43.5 34.501s39-14.7 43.5-34.501l31.5-26.499-34.799-3.501c-4.801-10.799-13.801-18.9-25.201-22.8zm-206.499-208.9-3.501-34.799-26.499 31.5c-19.801 4.5-34.501 22.199-34.501 43.5 0 21.299 14.7 39 34.501 43.5l25.499 31.5 4.501-34.801c10.799-4.799 18.9-13.799 22.798-25.199l33.701-15-33.701-15c-3.898-11.4-11.999-20.4-22.798-25.201zm191.499-79.799c-66.182 0-120 53.833-120 120s53.818 120 120 120 120-53.833 120-120-53.818-120-120-120z" fill="url(#SVGID_1_)"/></g></g><g><g><path d="m64.501 215.799c15.599-75 76.298-135.7 151-151.599-3.001-5.7-4.501-12.301-4.501-19.2 0-3.6.3-7.2 1.5-10.501-88.799 17.1-160.6 89.2-177.999 178 3.299-1.199 6.899-1.499 10.499-1.499 6.899 0 13.5 1.5 19.501 4.799zm382.998 0c6-3.3 12.601-4.799 19.501-4.799 3.6 0 7.2.3 10.499 1.5-17.399-88.801-89.2-160.9-177.999-178 1.2 3.3 1.5 6.9 1.5 10.5 0 6.899-1.5 13.5-4.501 19.2v.299c74.702 15.601 135.402 76.3 151 151.3zm.301 80.7h-.3c-15.599 74.7-76.298 135.399-151.298 151 3.3 6 4.799 12.599 4.799 19.501 0 3.6-.3 7.2-1.5 10.499 88.799-17.401 160.901-89.2 177.999-177.999-3.3 1.2-6.9 1.5-10.5 1.5-6.899 0-13.5-1.5-19.2-4.501zm-383.299-.3c-6.001 3.301-12.602 4.801-19.501 4.801-3.6 0-7.2-.3-10.499-1.5 17.399 88.799 89.2 160.898 177.999 177.999-1.2-3.299-1.5-6.899-1.5-10.499 0-6.901 1.5-13.5 4.501-19.2v-.3c-74.702-15.601-135.402-76.301-151-151.301zm324.983-25.199h35.217c-1.8-4.801-2.701-9.6-2.701-15s.901-10.201 2.701-15h-35.217c-7.011-62.325-56.159-111.473-118.484-118.484v-35.217c-4.799 1.8-9.6 2.701-15 2.701s-10.201-.901-15-2.701v35.217c-62.325 7.011-111.473 56.159-118.484 118.484h-35.217c1.8 4.799 2.701 9.6 2.701 15s-.901 10.199-2.701 15h35.217c7.011 62.325 56.158 111.473 118.484 118.484v35.215c4.799-1.8 9.6-2.699 15-2.699s10.201.899 15 2.699v-35.215c62.325-7.011 111.473-56.159 118.484-118.484zm-30-30h-44.647c-3.137-34.297-15.732-64.014-27.442-84.67 37.845 11.973 66.266 44.509 72.089 84.67zm-206.968 30h44.647c3.137 34.297 15.732 64.014 27.442 84.67-37.845-11.973-66.266-44.509-72.089-84.67zm44.647-30h-44.647c5.823-40.161 34.244-72.697 72.089-84.67-11.71 20.656-24.306 50.373-27.442 84.67zm58.837 108.926c-10.659-17.018-24.736-45.974-28.44-78.926h56.88c-3.704 32.952-17.781 61.908-28.44 78.926zm-28.44-108.926c3.704-32.952 17.781-61.908 28.44-78.926 10.659 17.018 24.736 45.974 28.44 78.926zm59.835 114.67c11.71-20.656 24.305-50.373 27.442-84.67h44.647c-5.823 40.161-34.244 72.697-72.089 84.67z" fill="url(#SVGID_2_)"/></g></g></g></svg>