<svg id="Capa_1" enable-background="new 0 0 512 512" height="512" viewBox="0 0 512 512" width="512" xmlns="http://www.w3.org/2000/svg" xmlns:xlink="http://www.w3.org/1999/xlink"><linearGradient id="SVGID_1_" gradientUnits="userSpaceOnUse" x1="256" x2="256" y1="496" y2="76"><stop offset="0" stop-color="#ffe59a"/><stop offset="1" stop-color="#ffffd5"/></linearGradient><linearGradient id="SVGID_2_" gradientUnits="userSpaceOnUse" x1="256" x2="256" y1="436" y2="16"><stop offset="0" stop-color="#fd5900"/><stop offset="1" stop-color="#ffde00"/></linearGradient><g><g><g><path d="m451.561 237.367-15-60c-1.67-6.679-7.676-11.367-14.561-11.367h-60c-6.885 0-12.891 4.688-14.561 11.367l-15 60c-2.36 9.505 4.819 18.633 14.561 18.633h30v75c0 8.291 6.709 15 15 15s15-6.709 15-15v-75h30c9.752 0 16.919-9.137 14.561-18.633zm-331.561 48.633c8.291 0 15-6.709 15-15v-150c0-8.291-6.709-15-15-15s-15 6.709-15 15v150c0 8.291 6.709 15 15 15zm30-180h137c8.291 0 15-6.709 15-15s-6.709-15-15-15h-137c-8.291 0-15 6.709-15 15s6.709 15 15 15zm212 240h-137c-8.291 0-15 6.709-15 15s6.709 15 15 15h137c8.291 0 15-6.709 15-15s-6.709-15-15-15zm-197.439 71.367c-1.67-6.679-7.676-11.367-14.561-11.367h-60c-6.885 0-12.891 4.688-14.561 11.367l-15 60c-2.358 9.496 4.809 18.633 14.561 18.633h90c9.742 0 16.921-9.128 14.561-18.633z" fill="url(#SVGID_1_)"/></g></g><g><g><path d="m120 136c24.814 0 45-20.186 45-45s-20.186-45-45-45-45 20.186-45 45 20.186 45 45 45zm272 180c-24.814 0-45 20.186-45 45s20.186 45 45 45 45-20.186 45-45-20.186-45-45-45zm-167-60h-210c-8.291 0-15 6.709-15 15v150c0 8.291 6.709 15 15 15h210c8.291 0 15-6.709 15-15v-150c0-8.291-6.709-15-15-15zm272-240h-210c-8.291 0-15 6.709-15 15v150c0 8.291 6.709 15 15 15h210c8.291 0 15-6.709 15-15v-150c0-8.291-6.709-15-15-15z" fill="url(#SVGID_2_)"/></g></g></g></svg>