<?xml version="1.0" encoding="UTF-8" standalone="no"?>
<!-- Created with Inkscape (http://www.inkscape.org/) -->

<svg
   xmlns:dc="http://purl.org/dc/elements/1.1/"
   xmlns:cc="http://creativecommons.org/ns#"
   xmlns:rdf="http://www.w3.org/1999/02/22-rdf-syntax-ns#"
   xmlns:svg="http://www.w3.org/2000/svg"
   xmlns="http://www.w3.org/2000/svg"
   xmlns:sodipodi="http://sodipodi.sourceforge.net/DTD/sodipodi-0.dtd"
   xmlns:inkscape="http://www.inkscape.org/namespaces/inkscape"
   width="40.034714mm"
   height="10.928893mm"
   viewBox="0 0 141.85528 38.724425"
   id="svg3523"
   version="1.1"
   inkscape:version="0.91 r13725"
   sodipodi:docname="dynexo - logo_bright02.svg"
   inkscape:export-filename="C:\Users\florian.reinholz\Desktop\dynexo - logo_bright02 - 235x64.png"
   inkscape:export-xdpi="206.2"
   inkscape:export-ydpi="206.2">
   <defs
      id="defs3525" />
   <sodipodi:namedview
      id="base"
      pagecolor="#ffffff"
      bordercolor="#666666"
      borderopacity="1.0"
      inkscape:pageopacity="0.0"
      inkscape:pageshadow="2"
      inkscape:zoom="5.6"
      inkscape:cx="51.834018"
      inkscape:cy="11.430462"
      inkscape:document-units="px"
      inkscape:current-layer="layer1"
      showgrid="false"
      fit-margin-top="0"
      fit-margin-left="0"
      fit-margin-right="0"
      fit-margin-bottom="0"
      inkscape:window-width="1920"
      inkscape:window-height="1017"
      inkscape:window-x="-8"
      inkscape:window-y="-8"
      inkscape:window-maximized="1" />
   <metadata
      id="metadata3528">
      <rdf:RDF>
         <cc:Work
            rdf:about="">
            <dc:format>image/svg+xml</dc:format>
            <dc:type
               rdf:resource="http://purl.org/dc/dcmitype/StillImage" />
            <dc:title></dc:title>
         </cc:Work>
      </rdf:RDF>
   </metadata>
   <g
      inkscape:label="Ebene 1"
      inkscape:groupmode="layer"
      id="layer1"
      transform="translate(-32.286641,-33.352064)">
      <path
         inkscape:export-ydpi="299.81082"
         inkscape:export-xdpi="299.81082"
         inkscape:export-filename="C:\Users\florian.reinholz\Desktop\dynexo - logo_bright02 - 473x129.png"
         inkscape:connector-curvature="0"
         d="m 48.704464,59.133669 0,-12.797168 -3.579045,0 c -2.399911,2e-5 -4.10273,0.502884 -5.108453,1.508609 -1.005754,1.005759 -1.508624,2.680826 -1.508614,5.025224 -1e-5,2.275059 0.461248,3.887719 1.383763,4.837953 0.922491,0.950258 2.507397,1.425382 4.754713,1.425382 z m 5.909585,4.806729 -11.382186,0 c -3.440333,0 -6.124614,-1.012662 -8.052852,-3.038017 -1.92825,-2.025346 -2.89237,-4.848352 -2.89237,-8.469015 0,-1.484331 0.201147,-2.847272 0.603443,-4.088855 0.402294,-1.241548 1.012674,-2.375607 1.831143,-3.402167 0.971053,-1.234616 2.139785,-2.118973 3.506214,-2.653076 1.366407,-0.534055 3.166331,-0.801094 5.399772,-0.801118 l 5.077251,0 0,-8.136086 5.909585,0 z"
         style="font-style:normal;font-variant:normal;font-weight:normal;font-stretch:normal;font-size:72px;line-height:125%;font-family:'HandelGothic BT';-inkscape-font-specification:'HandelGothic BT';letter-spacing:-3px;word-spacing:0px;fill:#00172e;fill-opacity:1;stroke:none"
         id="path11367-8" />
      <path
         inkscape:export-ydpi="299.81082"
         inkscape:export-xdpi="299.81082"
         inkscape:export-filename="C:\Users\florian.reinholz\Desktop\dynexo - logo_bright02 - 473x129.png"
         inkscape:connector-curvature="0"
         d="m 67.653971,58.988001 4.765124,0 0,-17.499851 5.930397,0 0,21.848808 c -2.7e-5,2.968661 -0.693637,5.167421 -2.080843,6.596256 -1.387247,1.428848 -3.509692,2.143265 -6.367367,2.143276 l -11.631888,0 0,-4.557037 10.612274,0 c 1.137511,-1.1e-5 2.011461,-0.273985 2.621863,-0.821941 0.610361,-0.547947 0.91555,-1.34214 0.915564,-2.382561 l 0,-0.374553 -5.243711,0 c -3.357097,0 -5.750057,-0.662389 -7.178898,-1.987201 -1.42884,-1.324791 -2.143264,-3.533946 -2.143264,-6.62747 l 0,-13.837577 5.867966,0 0,13.379793 c -6e-6,1.692424 0.25316,2.802201 0.759511,3.329342 0.506329,0.527152 1.564086,0.790728 3.173272,0.790716 z"
         style="font-style:normal;font-variant:normal;font-weight:normal;font-stretch:normal;font-size:72px;line-height:125%;font-family:'HandelGothic BT';-inkscape-font-specification:'HandelGothic BT';letter-spacing:-3px;word-spacing:0px;fill:#00172e;fill-opacity:1;stroke:none"
         id="path11369-8" />
      <path
         inkscape:export-ydpi="299.81082"
         inkscape:export-xdpi="299.81082"
         inkscape:export-filename="C:\Users\florian.reinholz\Desktop\dynexo - logo_bright02 - 473x129.png"
         inkscape:connector-curvature="0"
         id="path11371-4"
         style="font-style:normal;font-variant:normal;font-weight:normal;font-stretch:normal;font-size:72px;line-height:125%;font-family:'HandelGothic BT';-inkscape-font-specification:'HandelGothic BT';letter-spacing:-2px;word-spacing:0px;fill:#00172e;fill-opacity:1;stroke:none"
         d="m 118.75461,63.942109 c -3.71777,0 -6.53037,-0.946782 -8.43781,-2.840356 -1.90743,-1.893551 -2.86114,-4.685343 -2.86114,-8.375376 0,-3.690006 0.95717,-6.485262 2.87155,-8.385779 1.91437,-1.900482 4.72349,-2.850727 8.4274,-2.850751 l 8.65629,0 0,4.681891 -7.84476,0 c -2.15022,1.4e-5 -3.59639,0.305205 -4.33854,0.915564 -0.74218,0.610399 -1.14101,1.713244 -1.19649,3.308534 l 13.37979,0 0,4.6819 -13.37979,0 c 0.0555,1.609181 0.42656,2.70856 1.11324,3.298128 0.68667,0.589567 2.14673,0.884354 4.38016,0.884354 l 7.88639,0 0,4.681891 z" />
      <path
         inkscape:export-ydpi="299.81082"
         inkscape:export-xdpi="299.81082"
         inkscape:export-filename="C:\Users\florian.reinholz\Desktop\dynexo - logo_bright02 - 473x129.png"
         inkscape:connector-curvature="0"
         id="path11373-5"
         style="font-style:normal;font-weight:normal;font-size:40px;line-height:125%;font-family:Sans;letter-spacing:-3px;word-spacing:0px;fill:#00172e;fill-opacity:1;stroke:none"
         d="m 135.86142,52.726377 -8.30255,-11.23653 6.86676,0 4.80676,6.762728 4.95237,-6.762728 6.80435,0 -8.30255,11.382198 8.1777,11.070064 -6.88757,0 -4.7443,-6.513027 -4.76513,6.513027 -6.90839,0 z" />
      <path
         inkscape:export-ydpi="299.81082"
         inkscape:export-xdpi="299.81082"
         inkscape:export-filename="C:\Users\florian.reinholz\Desktop\dynexo - logo_bright02 - 473x129.png"
         inkscape:connector-curvature="0"
         id="path11375-0"
         style="font-style:normal;font-weight:normal;font-size:40px;line-height:125%;font-family:Sans;letter-spacing:-3px;word-spacing:0px;fill:#00172e;fill-opacity:1;stroke:none"
         d="m 156.53805,52.726377 c -2e-5,2.136334 0.49939,3.801011 1.49818,4.994017 0.9988,1.193018 2.39295,1.789528 4.18249,1.789518 1.77564,1e-5 3.16979,-0.5965 4.18248,-1.789518 1.01267,-1.193006 1.519,-2.857683 1.51903,-4.994017 -3e-5,-2.136315 -0.50289,-3.797518 -1.50861,-4.983611 -1.00577,-1.186056 -2.40339,-1.779097 -4.1929,-1.779118 -1.77567,2.1e-5 -3.16635,0.596527 -4.17208,1.789524 -1.00575,1.193032 -1.50861,2.850766 -1.50859,4.973205 z m 17.60388,0 c -3e-5,3.523561 -1.07166,6.336169 -3.21489,8.437802 -2.14329,2.101656 -5.03219,3.152473 -8.6667,3.152483 -3.63454,-10e-6 -6.53386,-1.054293 -8.69791,-3.162879 -2.16407,-2.108588 -3.24611,-4.917719 -3.24611,-8.427406 0,-3.523542 1.08204,-6.343073 3.24611,-8.45861 2.16405,-2.115497 5.06337,-3.173254 8.69791,-3.17328 3.60677,2.6e-5 6.48873,1.057783 8.64589,3.17328 2.1571,2.115537 3.23567,4.935068 3.2357,8.45861 z" />
      <rect
         inkscape:export-ydpi="299.81082"
         inkscape:export-xdpi="299.81082"
         inkscape:export-filename="C:\Users\florian.reinholz\Desktop\dynexo - logo_bright02 - 473x129.png"
         y="41.489632"
         x="81.618469"
         height="22.454571"
         width="7.5465117"
         id="rect11377-1"
         style="fill:#27a9e1;fill-opacity:1" />
      <path
         inkscape:export-ydpi="299.81082"
         inkscape:export-xdpi="299.81082"
         inkscape:export-filename="C:\Users\florian.reinholz\Desktop\dynexo - logo_bright02 - 473x129.png"
         id="path11379-0"
         d="m 101.52054,41.497222 c 2.18953,1.235822 3.68078,3.520731 3.68078,6.159283 l 3.0704,0 c 0.22534,-0.614545 0.47426,-1.195104 0.79535,-1.720158 0.35894,-0.586973 0.77914,-1.115557 1.25775,-1.590687 0.47858,-0.475121 1.01874,-0.901407 1.60918,-1.257752 0.59042,-0.356344 1.23983,-0.650262 1.94211,-0.887823 0.70229,-0.237566 1.46092,-0.41761 2.27505,-0.536396 0.81413,-0.118792 1.682,-0.166462 2.60799,-0.166467 l -14.51964,0 -2.71897,0 z"
         style="fill:#27a9e1;fill-opacity:1"
         inkscape:connector-curvature="0" />
      <path
         inkscape:export-ydpi="299.81082"
         inkscape:export-xdpi="299.81082"
         inkscape:export-filename="C:\Users\florian.reinholz\Desktop\dynexo - logo_bright02 - 473x129.png"
         id="path11381-1"
         d="m 90.663202,41.497222 0,6.159283 6.029802,0 0,16.295292 7.546506,0 0,-16.295292 c 0,-3.404025 -2.85356,-6.159283 -6.399741,-6.159283 l -1.146765,0 -6.029802,0 z"
         style="fill:#27a9e1;fill-opacity:1"
         inkscape:connector-curvature="0" />
   </g>
</svg>